<?xml version="1.0" encoding="UTF-8" standalone="no"?>
<!DOCTYPE svg PUBLIC "-//W3C//DTD SVG 1.1//EN" "http://www.w3.org/Graphics/SVG/1.1/DTD/svg11.dtd">
<svg width="100%" height="100%" viewBox="0 0 804 334" version="1.1" xmlns="http://www.w3.org/2000/svg" xmlns:xlink="http://www.w3.org/1999/xlink" xml:space="preserve" xmlns:serif="http://www.serif.com/" style="fill-rule:evenodd;clip-rule:evenodd;stroke-linejoin:round;stroke-miterlimit:1.41421;">
    <g transform="matrix(-1.85253,0,0,1.85253,1196.78,-2964.06)">
        <rect x="212.021" y="1600" width="434" height="180" style="fill:rgb(30,30,30);"/>
    </g>
    <g transform="matrix(1.85253,0,0,1.85253,-392.776,-407.558)">
        <path d="M486.239,309.1L486.239,298.043C486.239,297.296 486.177,296.849 486.052,296.702C485.928,296.556 485.531,296.46 484.861,296.416L484.704,296.408L484.704,295.893L487.874,295.893L487.874,301.679C488.284,301.048 488.753,300.575 489.281,300.259C489.81,299.944 490.398,299.786 491.045,299.786C492.064,299.786 492.874,300.187 493.478,300.99C494.081,301.792 494.382,302.871 494.382,304.227C494.382,305.732 494.036,306.939 493.345,307.846C492.653,308.754 491.734,309.208 490.589,309.208C490.063,309.208 489.573,309.105 489.12,308.9C488.666,308.696 488.251,308.389 487.874,307.979L487.775,307.979L487.567,309.1L486.239,309.1ZM487.874,307.332C488.312,307.653 488.738,307.893 489.153,308.054C489.568,308.214 489.975,308.294 490.373,308.294C491.131,308.294 491.698,307.993 492.075,307.39C492.451,306.786 492.639,305.882 492.639,304.675C492.639,303.397 492.457,302.438 492.091,301.799C491.726,301.16 491.175,300.84 490.439,300.84C489.947,300.84 489.488,300.958 489.061,301.193C488.635,301.428 488.24,301.781 487.874,302.251L487.874,307.332Z" style="fill:rgb(232,232,232);fill-rule:nonzero;"/>
        <path d="M496.682,312.279L499.637,309L496.798,302.168C496.499,301.438 496.278,300.983 496.134,300.803C495.99,300.623 495.769,300.525 495.47,300.508L495.304,300.5L495.304,299.985L499.421,299.985L499.421,300.5L499.247,300.5C498.494,300.5 498.118,300.6 498.118,300.799C498.118,300.898 498.275,301.355 498.591,302.168L500.608,307.008L502.758,302.144C503.073,301.43 503.231,301.001 503.231,300.857C503.231,300.619 502.896,300.5 502.227,300.5L502.002,300.5L502.002,299.985L504.675,299.985L504.675,300.5L504.518,300.508C504.174,300.53 503.881,300.843 503.638,301.446C503.593,301.551 503.488,301.789 503.322,302.16L498.749,312.279L496.682,312.279Z" style="fill:rgb(232,232,232);fill-rule:nonzero;"/>
        <path d="M510.834,308.751L510.834,306.385L511.706,306.385L511.714,306.535C511.731,306.811 511.739,307.019 511.739,307.157C511.739,307.594 511.919,307.924 512.279,308.145C512.865,308.51 513.513,308.693 514.221,308.693C514.957,308.693 515.533,308.484 515.948,308.066C516.363,307.648 516.57,307.071 516.57,306.335C516.57,305.716 516.437,305.223 516.172,304.858C515.906,304.493 515.389,304.094 514.62,303.663L513.748,303.165C511.867,302.102 510.926,300.943 510.926,299.687C510.926,298.74 511.265,297.957 511.943,297.337C512.62,296.718 513.471,296.408 514.495,296.408C514.938,296.408 515.418,296.451 515.935,296.536C516.453,296.622 517.007,296.754 517.6,296.931L517.6,299.114L516.678,299.114L516.67,298.973C516.648,298.674 516.637,298.455 516.637,298.317C516.637,297.852 516.471,297.51 516.139,297.292C515.807,297.073 515.286,296.964 514.578,296.964C513.986,296.964 513.506,297.159 513.138,297.549C512.77,297.939 512.586,298.452 512.586,299.089C512.586,299.631 512.713,300.079 512.968,300.434C513.222,300.788 513.682,301.153 514.346,301.529L515.217,302.027C516.424,302.714 517.237,303.311 517.658,303.82C518.078,304.329 518.289,304.969 518.289,305.738C518.289,306.762 517.908,307.612 517.147,308.29C516.386,308.968 515.436,309.307 514.296,309.307C513.632,309.307 513.011,309.26 512.432,309.166C511.854,309.072 511.321,308.934 510.834,308.751Z" style="fill:rgb(232,232,232);fill-rule:nonzero;"/>
        <path d="M522.539,301.679C522.954,301.048 523.432,300.575 523.975,300.259C524.517,299.944 525.123,299.786 525.792,299.786C526.567,299.786 527.176,300.041 527.619,300.55C528.056,301.059 528.274,301.759 528.274,302.65L528.274,306.85C528.313,307.675 528.377,308.139 528.465,308.245C528.554,308.35 528.952,308.427 529.661,308.477L529.81,308.485L529.81,309L525.103,309L525.103,308.485L525.253,308.477C525.961,308.427 526.36,308.35 526.448,308.245C526.537,308.139 526.6,307.675 526.639,306.85L526.639,302.907C526.639,302.132 526.538,301.594 526.336,301.293C526.134,300.991 525.773,300.84 525.253,300.84C524.888,300.84 524.478,300.955 524.024,301.185C523.571,301.414 523.075,301.762 522.539,302.227L522.539,306.85C522.539,307.603 522.599,308.051 522.721,308.195C522.843,308.339 523.244,308.433 523.925,308.477L524.082,308.485L524.082,309L519.368,309L519.368,308.485L519.525,308.477C520.195,308.433 520.592,308.337 520.717,308.191C520.841,308.044 520.903,307.597 520.903,306.85L520.903,298.043C520.903,297.296 520.841,296.849 520.717,296.702C520.592,296.556 520.195,296.46 519.525,296.416L519.368,296.408L519.368,295.893L522.539,295.893L522.539,301.679Z" style="fill:rgb(232,232,232);fill-rule:nonzero;"/>
        <path d="M534.932,309.208C533.603,309.208 532.555,308.786 531.786,307.942C531.016,307.098 530.632,305.948 530.632,304.493C530.632,303.037 531.016,301.889 531.786,301.048C532.555,300.207 533.603,299.786 534.932,299.786C536.265,299.786 537.315,300.207 538.082,301.048C538.848,301.889 539.231,303.037 539.231,304.493C539.231,305.948 538.847,307.098 538.078,307.942C537.308,308.786 536.26,309.208 534.932,309.208ZM534.932,308.693C535.668,308.693 536.279,308.296 536.766,307.502C537.253,306.708 537.497,305.705 537.497,304.493C537.497,303.292 537.253,302.292 536.766,301.492C536.279,300.692 535.668,300.292 534.932,300.292C534.201,300.292 533.592,300.692 533.105,301.492C532.618,302.292 532.375,303.292 532.375,304.493C532.375,305.705 532.617,306.708 533.101,307.502C533.585,308.296 534.196,308.693 534.932,308.693Z" style="fill:rgb(232,232,232);fill-rule:nonzero;"/>
        <path d="M549.981,297.379L548.022,297.379C547.563,297.379 547.161,297.404 546.818,297.454C546.591,297.487 546.478,297.692 546.478,298.068C546.478,298.35 546.472,298.594 546.461,298.798L546.453,298.964L545.582,298.964L545.582,296.715L556.132,296.715L556.132,298.964L555.26,298.964L555.252,298.798C555.235,298.594 555.227,298.35 555.227,298.068C555.227,297.692 555.116,297.487 554.895,297.454C554.546,297.404 554.145,297.379 553.691,297.379L551.724,297.379L551.724,306.85C551.724,307.586 551.79,308.033 551.923,308.191C552.056,308.348 552.452,308.444 553.11,308.477L553.467,308.485L553.467,309L548.246,309L548.246,308.485L548.603,308.477C549.262,308.444 549.656,308.348 549.786,308.191C549.916,308.033 549.981,307.586 549.981,306.85L549.981,297.379Z" style="fill:rgb(232,232,232);fill-rule:nonzero;"/>
        <path d="M562.88,307.763C561.906,308.726 560.943,309.208 559.992,309.208C559.228,309.208 558.592,308.965 558.082,308.481C557.573,307.997 557.319,307.39 557.319,306.659C557.319,305.807 557.651,305.115 558.315,304.584C559.073,303.975 560.357,303.671 562.166,303.671L562.507,303.671L562.507,302.55C562.507,301.128 561.967,300.417 560.888,300.417C560.385,300.417 559.939,300.572 559.552,300.882C559.325,301.07 559.181,301.455 559.12,302.036L559.112,302.193L557.999,302.193L557.999,300.542C559.151,300.038 560.219,299.786 561.204,299.786C563.163,299.786 564.142,300.685 564.142,302.484L564.142,306.501C564.142,307.221 564.204,307.727 564.329,308.021C564.453,308.314 564.671,308.46 564.98,308.46C565.091,308.46 565.238,308.436 565.42,308.386L565.47,309C565.077,309.138 564.726,309.208 564.416,309.208C563.608,309.208 563.096,308.726 562.88,307.763ZM562.507,307.581L562.507,304.186L562.125,304.186C561.162,304.186 560.409,304.385 559.867,304.783C559.325,305.182 559.054,305.729 559.054,306.427C559.054,306.947 559.222,307.379 559.56,307.722C559.898,308.065 560.318,308.236 560.822,308.236C561.298,308.236 561.859,308.018 562.507,307.581Z" style="fill:rgb(232,232,232);fill-rule:nonzero;"/>
        <path d="M568.068,308.651C567.443,308.364 567.13,307.971 567.13,307.473C567.13,307.19 567.262,306.912 567.525,306.638C567.787,306.365 568.182,306.097 568.707,305.837C568.099,305.566 567.641,305.19 567.334,304.708C567.027,304.227 566.873,303.643 566.873,302.957C566.873,301.994 567.182,301.225 567.799,300.649C568.416,300.074 569.242,299.786 570.276,299.786C570.907,299.786 571.477,299.902 571.986,300.135L575.149,299.886L574.734,300.882L572.567,300.533C573.276,301.214 573.63,302.016 573.63,302.94C573.63,303.865 573.319,304.628 572.696,305.231C572.073,305.835 571.281,306.136 570.318,306.136C569.953,306.136 569.565,306.078 569.156,305.962C568.962,306.111 568.815,306.27 568.716,306.439C568.616,306.608 568.566,306.786 568.566,306.975C568.566,307.368 568.912,307.564 569.604,307.564L571.04,307.564C572.418,307.564 573.367,307.711 573.887,308.004C574.407,308.297 574.667,308.831 574.667,309.606C574.667,310.475 574.275,311.171 573.489,311.694C572.703,312.217 571.663,312.478 570.368,312.478C569.134,312.478 568.14,312.302 567.388,311.951C566.635,311.6 566.259,311.133 566.259,310.552C566.259,310.176 566.41,309.83 566.711,309.515C567.013,309.199 567.465,308.911 568.068,308.651ZM568.508,302.891C568.508,303.798 568.655,304.48 568.948,304.937C569.242,305.393 569.679,305.622 570.26,305.622C570.841,305.622 571.275,305.395 571.563,304.941C571.851,304.487 571.995,303.806 571.995,302.899C571.995,301.161 571.419,300.292 570.268,300.292C569.681,300.292 569.242,300.508 568.948,300.94C568.655,301.372 568.508,302.022 568.508,302.891ZM568.5,308.792C568.295,308.992 568.142,309.214 568.039,309.461C567.937,309.707 567.886,309.979 567.886,310.278C567.886,310.848 568.097,311.276 568.521,311.561C568.944,311.846 569.579,311.988 570.426,311.988C571.234,311.988 571.877,311.811 572.356,311.457C572.834,311.103 573.074,310.624 573.074,310.021C573.074,309.611 572.93,309.304 572.642,309.1C572.354,308.895 571.92,308.792 571.339,308.792L568.5,308.792Z" style="fill:rgb(232,232,232);fill-rule:nonzero;"/>
        <path d="M580.544,309.208C579.216,309.208 578.168,308.786 577.398,307.942C576.629,307.098 576.245,305.948 576.245,304.493C576.245,303.037 576.629,301.889 577.398,301.048C578.168,300.207 579.216,299.786 580.544,299.786C581.878,299.786 582.928,300.207 583.695,301.048C584.461,301.889 584.844,303.037 584.844,304.493C584.844,305.948 584.46,307.098 583.69,307.942C582.921,308.786 581.873,309.208 580.544,309.208ZM580.544,308.693C581.28,308.693 581.892,308.296 582.379,307.502C582.866,306.708 583.109,305.705 583.109,304.493C583.109,303.292 582.866,302.292 582.379,301.492C581.892,300.692 581.28,300.292 580.544,300.292C579.814,300.292 579.205,300.692 578.718,301.492C578.231,302.292 577.988,303.292 577.988,304.493C577.988,305.705 578.23,306.708 578.714,307.502C579.198,308.296 579.808,308.693 580.544,308.693Z" style="fill:rgb(232,232,232);fill-rule:nonzero;"/>
        <path d="M589.144,301.679C589.62,301.048 590.117,300.575 590.634,300.259C591.151,299.944 591.692,299.786 592.257,299.786C592.915,299.786 593.438,299.944 593.826,300.259C594.213,300.575 594.462,301.048 594.573,301.679C595.098,301.048 595.63,300.575 596.166,300.259C596.703,299.944 597.243,299.786 597.785,299.786C599.401,299.786 600.209,300.672 600.209,302.442L600.209,306.85C600.209,307.603 600.268,308.05 600.387,308.191C600.506,308.332 600.906,308.427 601.587,308.477L601.745,308.485L601.745,309L597.03,309L597.03,308.485L597.187,308.477C597.868,308.427 598.268,308.332 598.387,308.191C598.506,308.05 598.565,307.603 598.565,306.85L598.565,302.741C598.565,302.027 598.473,301.533 598.287,301.26C598.102,300.986 597.771,300.849 597.295,300.849C596.897,300.849 596.481,300.965 596.046,301.197C595.612,301.43 595.157,301.778 594.681,302.243L594.681,306.85C594.681,307.597 594.742,308.044 594.863,308.191C594.985,308.337 595.383,308.433 596.059,308.477L596.216,308.485L596.216,309L591.501,309L591.501,308.485L591.659,308.477C592.34,308.433 592.74,308.339 592.859,308.195C592.978,308.051 593.037,307.603 593.037,306.85L593.037,302.741C593.037,302.038 592.946,301.547 592.763,301.268C592.581,300.988 592.26,300.849 591.8,300.849C591.369,300.849 590.931,300.965 590.489,301.197C590.046,301.43 589.598,301.778 589.144,302.243L589.144,306.85C589.144,307.603 589.205,308.051 589.327,308.195C589.448,308.339 589.85,308.433 590.53,308.477L590.688,308.485L590.688,309L585.973,309L585.973,308.485L586.131,308.477C586.8,308.433 587.197,308.337 587.322,308.191C587.447,308.044 587.509,307.597 587.509,306.85L587.509,302.135C587.509,301.388 587.447,300.943 587.322,300.799C587.197,300.655 586.8,300.558 586.131,300.508L585.973,300.5L585.973,299.985L589.144,299.985L589.144,301.679Z" style="fill:rgb(232,232,232);fill-rule:nonzero;"/>
        <path d="M609.016,309L609.016,307.307C608.601,307.938 608.124,308.412 607.584,308.73C607.045,309.048 606.44,309.208 605.77,309.208C604.996,309.208 604.387,308.95 603.944,308.436C603.502,307.926 603.28,307.226 603.28,306.335L603.28,302.135C603.28,301.388 603.218,300.943 603.093,300.799C602.969,300.655 602.572,300.558 601.902,300.508L601.745,300.5L601.745,299.985L604.915,299.985L604.915,306.078C604.915,306.77 605.039,307.289 605.285,307.635C605.531,307.98 605.901,308.153 606.393,308.153C606.847,308.153 607.292,308.037 607.729,307.805C608.167,307.572 608.596,307.224 609.016,306.759L609.016,302.135C608.977,301.311 608.914,300.846 608.825,300.741C608.737,300.636 608.338,300.558 607.63,300.508L607.48,300.5L607.48,299.985L610.651,299.985L610.651,306.85C610.69,307.675 610.754,308.139 610.842,308.245C610.931,308.35 611.329,308.427 612.038,308.477L612.195,308.485L612.195,309L609.016,309Z" style="fill:rgb(232,232,232);fill-rule:nonzero;"/>
        <path d="M615.972,302.442L615.972,306.85C615.972,307.597 616.037,308.045 616.167,308.195C616.297,308.344 616.694,308.438 617.358,308.477L617.715,308.485L617.715,309L612.801,309L612.801,308.485L612.959,308.477C613.629,308.433 614.026,308.337 614.15,308.191C614.275,308.044 614.337,307.597 614.337,306.85L614.337,302.135C614.337,301.388 614.275,300.943 614.15,300.799C614.026,300.655 613.629,300.558 612.959,300.508L612.801,300.5L612.801,299.985L615.972,299.985L615.972,301.679C616.719,300.417 617.696,299.786 618.902,299.786C619.068,299.786 619.254,299.817 619.458,299.877L619.458,302.343L618.537,302.343L618.529,302.193C618.468,301.679 618.414,301.373 618.367,301.276C618.32,301.179 618.194,301.131 617.989,301.131C617.17,301.131 616.498,301.568 615.972,302.442Z" style="fill:rgb(232,232,232);fill-rule:nonzero;"/>
        <path d="M626.365,307.763C625.391,308.726 624.428,309.208 623.476,309.208C622.712,309.208 622.076,308.965 621.567,308.481C621.058,307.997 620.803,307.39 620.803,306.659C620.803,305.807 621.135,305.115 621.799,304.584C622.557,303.975 623.841,303.671 625.651,303.671L625.991,303.671L625.991,302.55C625.991,301.128 625.452,300.417 624.373,300.417C623.869,300.417 623.423,300.572 623.036,300.882C622.809,301.07 622.665,301.455 622.604,302.036L622.596,302.193L621.484,302.193L621.484,300.542C622.635,300.038 623.703,299.786 624.688,299.786C626.647,299.786 627.626,300.685 627.626,302.484L627.626,306.501C627.626,307.221 627.689,307.727 627.813,308.021C627.938,308.314 628.155,308.46 628.465,308.46C628.575,308.46 628.722,308.436 628.905,308.386L628.955,309C628.562,309.138 628.21,309.208 627.9,309.208C627.092,309.208 626.581,308.726 626.365,307.763ZM625.991,307.581L625.991,304.186L625.609,304.186C624.646,304.186 623.894,304.385 623.352,304.783C622.809,305.182 622.538,305.729 622.538,306.427C622.538,306.947 622.707,307.379 623.044,307.722C623.382,308.065 623.803,308.236 624.306,308.236C624.782,308.236 625.344,308.018 625.991,307.581Z" style="fill:rgb(232,232,232);fill-rule:nonzero;"/>
    </g>
    <g transform="matrix(1.85253,0,0,1.85253,-392.776,-3139.47)">
        <path d="M227.819,1720.95L257.675,1720.95L257.675,1735.37L227.819,1735.37L227.819,1720.95ZM223.867,1717L223.867,1757.69L227.819,1757.69L227.819,1739.32L261.185,1739.32L261.185,1735.37L261.185,1720.76L261.185,1717L227.819,1717L223.867,1717Z" style="fill:rgb(232,232,232);fill-rule:nonzero;"/>
    </g>
    <g transform="matrix(1.85253,0,0,1.85253,-392.776,-3139.47)">
        <rect x="449.254" y="1717" width="3.953" height="40.689" style="fill:rgb(232,232,232);"/>
    </g>
    <g transform="matrix(1.85253,0,0,1.85253,183.509,116.71)">
        <path d="M0,-40.689L0,0L35.342,0L35.342,-3.953L3.954,-3.953L3.954,-40.689L0,-40.689Z" style="fill:rgb(232,232,232);fill-rule:nonzero;"/>
    </g>
    <g transform="matrix(1.85253,0,0,1.85253,-392.776,-3139.47)">
        <path d="M269.043,1720.95L303.222,1720.95L303.222,1753.74L269.043,1753.74L269.043,1720.95ZM265.09,1717L265.09,1757.69L307.175,1757.69L307.175,1753.74L307.175,1720.95L307.175,1717L303.222,1717L269.043,1717L265.09,1717Z" style="fill:rgb(232,232,232);fill-rule:nonzero;"/>
    </g>
    <g transform="matrix(1.85253,0,0,1.85253,-392.776,-3139.47)">
        <path d="M400.269,1720.95L429.681,1720.95L429.681,1735.37L400.269,1735.37L400.269,1720.95ZM396.316,1717L396.316,1757.69L400.269,1757.69L400.269,1739.32L416.354,1739.32L416.354,1757.69L433.633,1757.69L433.633,1753.74L420.308,1753.74L420.308,1739.32L433.633,1739.32L433.633,1735.37L433.633,1720.82L433.633,1717L400.269,1717L396.316,1717Z" style="fill:rgb(232,232,232);fill-rule:nonzero;"/>
    </g>
    <g transform="matrix(1.85253,0,0,1.85253,-392.776,-3139.47)">
        <path d="M592.093,1757.69L634.177,1757.69L634.177,1753.74L592.093,1753.74L592.093,1757.69ZM592.093,1717L592.093,1739.32L630.225,1739.32L630.225,1753.73L634.177,1753.73L634.177,1739.18L634.177,1735.37L596.046,1735.37L596.046,1720.95L634.177,1720.95L634.177,1717L592.093,1717Z" style="fill:rgb(232,232,232);fill-rule:nonzero;"/>
    </g>
    <g transform="matrix(1.85253,0,0,1.85253,475.741,116.71)">
        <path d="M0,-40.689L0,-36.736L19.065,-36.736L19.065,0L23.019,0L23.019,-36.736L42.085,-36.736L42.085,-40.689L23.019,-40.689L19.065,-40.689L0,-40.689Z" style="fill:rgb(232,232,232);fill-rule:nonzero;"/>
    </g>
    <g transform="matrix(1.85253,0,0,1.85253,256.215,116.708)">
        <path d="M0,-40.689L0,-16.443L19.066,-16.443L19.066,0L23.02,0L23.02,-16.443L42.084,-16.443L42.084,-20.694L42.084,-40.689L38.131,-40.689L38.131,-20.694L3.952,-20.694L3.952,-40.689L0,-40.689Z" style="fill:rgb(232,232,232);fill-rule:nonzero;"/>
    </g>
    <g transform="matrix(1.85253,0,0,1.85253,618.901,116.708)">
        <path d="M0,-40.689L0,0L42.084,0L42.084,-3.953L3.953,-3.953L3.953,-18.368L42.084,-18.368L42.084,-22.321L3.953,-22.321L3.953,-36.736L42.084,-36.736L42.084,-40.689L0,-40.689Z" style="fill:rgb(232,232,232);fill-rule:nonzero;"/>
    </g>
    <g transform="matrix(1.85253,0,0,1.85253,-392.776,-3139.47)">
        <rect x="526.53" y="1717" width="3.953" height="40.689" style="fill:rgb(232,232,232);"/>
    </g>
</svg>
