<?xml version="1.0" encoding="UTF-8" standalone="no"?>
<!DOCTYPE svg PUBLIC "-//W3C//DTD SVG 1.1//EN" "http://www.w3.org/Graphics/SVG/1.1/DTD/svg11.dtd">
<svg width="100%" height="100%" viewBox="0 0 909 455" version="1.1" xmlns="http://www.w3.org/2000/svg" xmlns:xlink="http://www.w3.org/1999/xlink" xml:space="preserve" xmlns:serif="http://www.serif.com/" style="fill-rule:evenodd;clip-rule:evenodd;stroke-linejoin:round;stroke-miterlimit:2;">
    <g transform="matrix(0.990087,0,0,0.990087,-49.133,-1243.29)">
        <g transform="matrix(0.730022,0,0,0.730022,23.9507,1302.56)">
            <g>
                <g>
                    <g transform="matrix(1.03774,0,0,1.03774,-129.11,-1148.82)">
                        <circle cx="365.324" cy="1347.95" r="191.401" style="fill:white;"/>
                    </g>
                    <g transform="matrix(1.33831,0,0,1.33831,-622.839,-614.944)">
                        <path d="M652.644,529.313C696.491,529.52 738.76,556.233 757.753,595.624C774.062,629.448 772.713,671.234 754.137,703.983C730.303,746 679.063,770.685 630.126,761.297C582.575,752.174 542.506,711.052 536.167,661.244C530.004,612.822 557.195,561.573 602.821,540.256C618.005,533.161 634.703,529.449 651.51,529.315C651.888,529.313 652.266,529.313 652.644,529.313ZM651.926,541.4C612.417,541.586 574.28,565.866 557.39,601.448C543.047,631.665 544.329,668.792 560.908,698.02C582.272,735.683 628.225,757.848 672.128,749.427C714.766,741.248 750.373,704.63 756.289,660.374C762.14,616.615 737.697,570.41 696.594,551.206C682.989,544.849 668.038,541.522 652.945,541.401C652.605,541.4 652.265,541.399 651.926,541.4Z"/>
                    </g>
                    <g transform="matrix(1.94107,0,0,1.94107,-16.0033,-650.834)">
                        <g transform="matrix(0.344735,0,0,0.344735,-87.864,203.034)">
                            <path d="M653.06,523.272C705.752,523.776 755.717,561.263 770.465,611.946C782.382,652.898 771.096,699.684 741.853,730.723C719.107,754.866 686.576,769.113 653.06,769.433C653.06,769.433 640.633,767.573 640.192,757.9C639.852,750.459 646.596,745.522 656.093,745.19C697.416,743.486 735.752,713.533 747.254,674.005C756.888,640.899 747.63,603.069 723.85,578.128C705.442,558.821 679.026,547.527 652.228,547.442C652.228,547.442 637.367,542.609 640.72,531.78C642.239,526.874 645.562,523.535 652.304,523.269C652.556,523.27 652.808,523.271 653.06,523.272Z"/>
                        </g>
                        <g transform="matrix(0.344735,0,0,0.344735,-87.864,279.563)">
                            <path d="M653.253,523.31C660.15,524.171 660.949,526.424 662.538,528.987C667.503,536.993 660.915,547.081 648.437,547.515C607.322,549.211 568.862,578.888 557.277,618.7C547.644,651.806 556.902,689.635 580.682,714.578C599.084,733.88 625.312,745.178 652.304,745.263C652.304,745.263 667.165,750.096 663.811,760.925C661.609,768.036 653.24,769.749 644.376,769.186C595.109,766.06 549.481,730.345 534.722,682.937C516.402,624.088 549.074,553.058 609.959,530.747C623.467,525.797 637.843,523.315 652.228,523.269C652.569,523.283 652.911,523.296 653.253,523.31Z"/>
                        </g>
                    </g>
                    <g transform="matrix(1.18856e-16,1.94107,-1.94107,1.18856e-16,1150.83,-16.0033)">
                        <g transform="matrix(0.344735,0,0,0.344735,-87.864,203.034)">
                            <path d="M653.06,523.272C705.752,523.776 755.717,561.263 770.465,611.946C782.382,652.898 771.096,699.684 741.853,730.723C719.107,754.866 686.576,769.113 653.06,769.433C653.06,769.433 640.633,767.573 640.192,757.9C639.852,750.459 646.596,745.522 656.093,745.19C697.416,743.486 735.752,713.533 747.254,674.005C756.888,640.899 747.63,603.069 723.85,578.128C705.442,558.821 679.026,547.527 652.228,547.442C652.228,547.442 637.367,542.609 640.72,531.78C642.239,526.874 645.562,523.535 652.304,523.269C652.556,523.27 652.808,523.271 653.06,523.272Z"/>
                        </g>
                        <g transform="matrix(0.344735,0,0,0.344735,-87.864,279.563)">
                            <path d="M653.253,523.31C660.15,524.171 660.949,526.424 662.538,528.987C667.503,536.993 660.915,547.081 648.437,547.515C607.322,549.211 568.862,578.888 557.277,618.7C547.644,651.806 556.902,689.635 580.682,714.578C599.084,733.88 625.312,745.178 652.304,745.263C652.304,745.263 667.165,750.096 663.811,760.925C661.609,768.036 653.24,769.749 644.376,769.186C595.109,766.06 549.481,730.345 534.722,682.937C516.402,624.088 549.074,553.058 609.959,530.747C623.467,525.797 637.843,523.315 652.228,523.269C652.569,523.283 652.911,523.296 653.253,523.31Z"/>
                        </g>
                    </g>
                    <g transform="matrix(1.94107,0,0,1.94107,110.226,-964.985)">
                        <g transform="matrix(1.272,0,0,1.272,-610.237,-19.5993)">
                            <circle cx="536.355" cy="507.496" r="24.055" style="fill:white;fill-opacity:0.98;"/>
                        </g>
                        <g transform="matrix(1.272,0,0,1.272,-610.221,-19.5995)">
                            <path d="M536.531,480.296C548.984,480.414 560.696,489.985 563.068,502.352C566.028,517.781 553.422,534.587 536.531,534.695C523.589,534.778 511.345,524.442 509.443,511.464C507.237,496.405 519.494,480.662 535.83,480.301C536.063,480.297 536.297,480.296 536.531,480.296ZM536.22,486.586C526.707,486.675 517.791,493.901 515.87,503.281C513.434,515.174 523.092,528.322 536.22,528.406C546.163,528.47 555.579,520.55 557.044,510.552C558.739,498.984 549.334,486.867 536.761,486.589C536.581,486.586 536.4,486.585 536.22,486.586Z"/>
                        </g>
                    </g>
                    <g transform="matrix(2.70937,0,0,2.70937,-1536.22,-700.673)">
                        <g transform="matrix(1,0,0,1,155.57,-145.139)">
                            <path d="M575.823,496.024C575.823,535.88 543.535,568.191 503.704,568.191C463.876,568.191 431.587,535.88 431.587,496.021C431.587,456.164 463.876,423.855 503.704,423.855C543.535,423.855 575.823,456.164 575.823,496.024ZM558.055,496.022C558.055,466.006 533.703,441.637 503.707,441.637C473.712,441.637 449.36,466.006 449.36,496.022C449.36,526.039 473.712,550.408 503.707,550.408C533.703,550.408 558.055,526.039 558.055,496.022Z" style="fill-rule:nonzero;"/>
                        </g>
                        <g transform="matrix(-1,1.22465e-16,-1.22465e-16,-1,643.739,295.628)">
                            <path d="M0,-110.51C-3.378,-111.46 -6.872,-112.101 -10.384,-112.414L-9.318,-124.366C-5.07,-123.988 -0.842,-123.212 3.249,-122.062L0,-110.51ZM-31.331,-110.437L-34.634,-121.973C-30.549,-123.144 -26.324,-123.939 -22.077,-124.337L-20.957,-112.389C-24.467,-112.06 -27.957,-111.404 -31.331,-110.437M18.841,-101.176C16.024,-103.294 13,-105.16 9.851,-106.72L15.18,-117.472C18.989,-115.584 22.647,-113.328 26.054,-110.766L18.841,-101.176ZM-50.125,-101.016L-57.383,-110.573C-53.99,-113.149 -50.343,-115.422 -46.542,-117.329L-41.162,-106.602C-44.304,-105.027 -47.319,-103.147 -50.125,-101.016M33.065,-85.666C31.202,-88.649 29.049,-91.478 26.667,-94.075L35.511,-102.186C38.389,-99.048 40.991,-95.628 43.243,-92.022L33.065,-85.666ZM-64.277,-85.44L-74.485,-91.747C-72.251,-95.364 -69.666,-98.796 -66.8,-101.949L-57.919,-93.879C-60.29,-91.27 -62.429,-88.431 -64.277,-85.44M40.716,-66.093C40.063,-69.551 39.083,-72.963 37.803,-76.234L48.979,-80.606C50.53,-76.641 51.717,-72.508 52.507,-68.32L40.716,-66.093ZM-71.838,-65.828L-83.64,-68C-82.869,-72.192 -81.701,-76.331 -80.168,-80.302L-68.973,-75.983C-70.237,-72.706 -71.201,-69.289 -71.838,-65.828M52.549,-42.68L40.75,-44.871C41.39,-48.315 41.714,-51.855 41.714,-55.393L41.714,-55.593L53.714,-55.593L53.714,-55.393C53.714,-51.122 53.323,-46.845 52.549,-42.68M-83.601,-42.573C-84.38,-46.738 -84.779,-51.014 -84.786,-55.285L-72.786,-55.304C-72.78,-51.766 -72.451,-48.226 -71.806,-44.782L-83.601,-42.573ZM43.356,-18.947L33.159,-25.271C35.015,-28.266 36.6,-31.444 37.869,-34.718L49.058,-30.385C47.522,-26.42 45.604,-22.571 43.356,-18.947M-74.373,-18.858C-76.625,-22.477 -78.549,-26.321 -80.091,-30.284L-68.909,-34.637C-67.635,-31.364 -66.045,-28.188 -64.185,-25.198L-74.373,-18.858ZM26.223,-0.149L18.982,-9.718C21.787,-11.841 24.413,-14.238 26.787,-16.842L35.656,-8.758C32.787,-5.611 29.614,-2.715 26.223,-0.149M-57.213,-0.087C-60.608,-2.648 -63.785,-5.54 -66.657,-8.681L-57.801,-16.779C-55.423,-14.178 -52.794,-11.785 -49.985,-9.665L-57.213,-0.087ZM3.457,11.216L0.172,-0.325C3.55,-1.286 6.859,-2.571 10.01,-4.145L15.372,6.591C11.557,8.496 7.548,10.052 3.457,11.216M-34.426,11.247C-38.523,10.087 -42.534,8.536 -46.35,6.639L-41.004,-4.105C-37.853,-2.537 -34.541,-1.257 -31.158,-0.3L-34.426,11.247ZM-15.537,13.856C-17.649,13.856 -19.777,13.76 -21.862,13.571L-20.777,1.619C-17.302,1.936 -13.708,1.935 -10.205,1.611L-9.103,13.56C-11.23,13.756 -13.396,13.856 -15.537,13.856" style="fill:white;fill-rule:nonzero;"/>
                        </g>
                    </g>
                </g>
            </g>
        </g>
        <g transform="matrix(4.73058,0,0,4.73058,314.093,-591.66)">
            <path d="M42.71,428.84C41.42,429.54 39.88,429.97 38.24,429.97C32.88,429.97 28.81,425.88 28.81,420.52C28.81,415.16 32.88,411.07 38.24,411.07C39.88,411.07 41.42,411.5 42.71,412.2L42.71,415.75C41.61,414.78 40.02,414.13 38.24,414.13C34.66,414.13 31.96,416.96 31.96,420.51C31.96,424.07 34.65,426.89 38.24,426.89C40.02,426.89 41.63,426.24 42.71,425.3L42.71,428.84Z" style="fill-rule:nonzero;"/>
            <rect x="45.48" y="420.61" width="7.03" height="2.77" style="fill-rule:nonzero;"/>
            <path d="M65.24,415.35C64.27,414.6 62.74,413.98 61.25,413.98C59.5,413.98 58.53,414.84 58.53,416.05C58.53,416.83 59.04,417.48 60.04,418.1L62.84,419.85C65.18,421.25 66.07,422.73 66.07,424.73C66.07,427.48 64.13,429.98 60.09,429.98C58.23,429.98 56.62,429.47 55.51,428.93L55.51,425.48C56.48,426.26 58.18,427.07 59.95,427.07C61.81,427.07 62.78,426.1 62.78,424.89C62.78,424.08 62.27,423.38 61.08,422.65L58.23,420.9C55.97,419.58 55.24,418.1 55.24,416.16C55.24,413.71 56.86,411.07 61.3,411.07C62.78,411.07 64.15,411.47 65.23,412.01L65.23,415.35L65.24,415.35Z" style="fill-rule:nonzero;"/>
            <path d="M74.88,416.16C78.76,416.16 81.77,419.15 81.77,423.05C81.77,426.93 78.75,429.97 74.88,429.97C70.97,429.97 67.99,426.93 67.99,423.05C67.99,419.15 70.98,416.16 74.88,416.16ZM74.88,427.06C77.12,427.06 78.76,425.26 78.76,423.05C78.76,420.84 77.12,419.04 74.88,419.04C72.67,419.04 70.97,420.84 70.97,423.05C70.98,425.26 72.67,427.06 74.88,427.06Z" style="fill-rule:nonzero;"/>
            <path d="M92.79,427.82C92.09,429.09 90.88,429.97 89.05,429.97C86.14,429.97 84.26,427.79 84.26,424.85L84.26,416.42L87.22,416.42L87.22,424.04C87.22,425.84 88.27,427.06 89.99,427.06C91.66,427.06 92.71,425.93 92.79,424.23L92.79,416.42L95.73,416.42L95.73,429.67L92.79,429.67L92.79,427.82Z" style="fill-rule:nonzero;"/>
            <path d="M102.13,418.31C102.83,417.02 104.07,416.16 105.85,416.16C108.79,416.16 110.67,418.31 110.67,421.28L110.67,429.68L107.71,429.68L107.71,422.03C107.71,420.25 106.66,419.04 104.91,419.04C103.24,419.04 102.19,420.17 102.14,421.87L102.14,429.68L99.18,429.68L99.18,416.43L102.14,416.43L102.14,418.31L102.13,418.31Z" style="fill-rule:nonzero;"/>
            <path d="M124.1,427.52C123.13,429.03 121.51,429.97 119.55,429.97C115.78,429.97 113.11,426.93 113.11,423.05C113.11,419.14 115.78,416.16 119.57,416.16C121.54,416.16 123.12,417.08 124.09,418.58L124.09,411.09L127.03,411.09L127.03,429.67L124.09,429.67L124.09,427.52L124.1,427.52ZM120.14,419.07C117.88,419.07 116.18,420.85 116.18,423.06C116.18,425.24 117.88,427.07 120.14,427.07C122.4,427.07 124.1,425.24 124.1,423.06C124.1,420.84 122.41,419.07 120.14,419.07Z" style="fill-rule:nonzero;"/>
            <path d="M42.71,451.52C41.42,452.22 39.88,452.65 38.24,452.65C32.88,452.65 28.81,448.56 28.81,443.2C28.81,437.84 32.88,433.75 38.24,433.75C39.88,433.75 41.42,434.18 42.71,434.88L42.71,438.43C41.61,437.46 40.02,436.81 38.24,436.81C34.66,436.81 31.96,439.64 31.96,443.19C31.96,446.75 34.65,449.57 38.24,449.57C40.02,449.57 41.63,448.92 42.71,447.98L42.71,451.52Z" style="fill-rule:nonzero;"/>
            <path d="M48.6,440.72C49.22,439.62 50.3,438.84 51.86,438.84C52.21,438.84 52.64,438.87 52.96,438.92L52.96,442.07C52.48,441.86 51.86,441.72 51.18,441.72C49.56,441.72 48.65,442.85 48.59,444.55L48.59,452.36L45.63,452.36L45.63,439.1L48.59,439.1L48.59,440.72L48.6,440.72Z" style="fill-rule:nonzero;"/>
            <path d="M57.25,446.72C57.55,448.63 59.14,449.95 61.29,449.95C63.04,449.95 64.76,449.3 65.92,448.49L65.92,451.43C64.79,452.08 63.07,452.64 61.07,452.64C57.16,452.64 54.26,449.79 54.26,445.72C54.26,441.81 57.09,438.83 60.91,438.83C64.71,438.83 67.21,441.71 67.21,445.21C67.21,445.72 67.13,446.34 67.02,446.72L57.25,446.72ZM57.22,444.43L64.36,444.43C64.31,442.57 62.82,441.31 60.89,441.31C58.89,441.31 57.41,442.71 57.22,444.43Z" style="fill-rule:nonzero;"/>
            <path d="M70.12,439.67C71.09,439.21 72.49,438.84 73.92,438.84C77.21,438.84 79.33,440.43 79.33,444.17L79.33,452.36L76.37,452.36L76.37,451.15C75.7,452.04 74.54,452.66 73.14,452.66C70.23,452.66 68.64,450.61 68.64,448.3C68.64,445.88 70.5,443.96 73.19,443.96C74.48,443.96 75.69,444.53 76.37,445.23L76.37,444.13C76.37,442.25 75.08,441.49 73.6,441.49C72.39,441.49 71.15,441.89 70.13,442.54L70.13,439.67L70.12,439.67ZM73.94,450.41C75.26,450.41 76.34,449.47 76.34,448.28C76.34,447.09 75.26,446.12 73.94,446.12C72.62,446.12 71.57,447.09 71.57,448.28C71.57,449.47 72.65,450.41 73.94,450.41Z" style="fill-rule:nonzero;"/>
            <path d="M83.63,452.34L83.63,441.63L81.4,441.63L81.4,439.1L83.8,439.1L83.8,436L86.6,435.35L86.6,439.09L89,439.09L89,441.62L86.6,441.62L86.6,452.34L83.63,452.34Z" style="fill-rule:nonzero;"/>
            <path d="M92.54,433.23C93.59,433.23 94.34,434.06 94.34,435.06C94.34,436.08 93.59,436.89 92.54,436.89C91.49,436.89 90.71,436.08 90.71,435.06C90.71,434.06 91.49,433.23 92.54,433.23ZM94.03,452.35L91.07,452.35L91.07,439.1L94.03,439.1L94.03,452.35Z" style="fill-rule:nonzero;"/>
            <path d="M103.5,438.83C107.38,438.83 110.39,441.82 110.39,445.72C110.39,449.6 107.37,452.64 103.5,452.64C99.59,452.64 96.61,449.6 96.61,445.72C96.61,441.82 99.6,438.83 103.5,438.83ZM103.5,449.74C105.74,449.74 107.38,447.94 107.38,445.73C107.38,443.52 105.74,441.72 103.5,441.72C101.29,441.72 99.59,443.52 99.59,445.73C99.6,447.93 101.3,449.74 103.5,449.74Z" style="fill-rule:nonzero;"/>
            <path d="M115.92,440.99C116.62,439.7 117.86,438.84 119.64,438.84C122.58,438.84 124.46,440.99 124.46,443.96L124.46,452.36L121.5,452.36L121.5,444.71C121.5,442.93 120.45,441.72 118.7,441.72C117.03,441.72 115.98,442.85 115.93,444.55L115.93,452.36L112.97,452.36L112.97,439.1L115.93,439.1L115.93,440.99L115.92,440.99Z" style="fill-rule:nonzero;"/>
            <path d="M134.87,442.36C134.01,441.79 132.9,441.42 131.88,441.42C130.75,441.42 130.16,441.99 130.16,442.71C130.16,443.28 130.51,443.57 131.16,443.98L133.29,445.25C134.93,446.25 135.5,447.46 135.5,448.75C135.5,451.04 133.75,452.65 130.76,452.65C129.49,452.65 128.2,452.3 127.31,451.9L127.31,448.86C127.98,449.45 129.38,450.1 130.6,450.1C131.78,450.1 132.43,449.51 132.43,448.73C132.43,448.19 132.13,447.76 131.3,447.28L129.04,445.93C127.67,445.12 127.13,443.94 127.13,442.64C127.13,440.43 128.8,438.84 131.82,438.84C132.92,438.84 134.06,439.08 134.89,439.38L134.89,442.36L134.87,442.36Z" style="fill-rule:nonzero;"/>
            <rect x="28.79" y="456.78" width="0.98" height="7.71" style="fill-rule:nonzero;"/>
            <path d="M32.49,459.85C32.8,459.26 33.34,458.86 34.15,458.86C35.42,458.86 36.22,459.79 36.22,461.05L36.22,464.5L35.28,464.5L35.28,461.28C35.28,460.41 34.75,459.79 33.89,459.79C33.04,459.79 32.53,460.36 32.5,461.21L32.5,464.5L31.56,464.5L31.56,458.98L32.5,458.98L32.5,459.85L32.49,459.85Z" style="fill-rule:nonzero;"/>
            <path d="M38.17,464.49L38.17,459.78L37.14,459.78L37.14,458.96L38.22,458.96L38.22,457.61L39.12,457.37L39.12,458.96L40.21,458.96L40.21,459.78L39.12,459.78L39.12,464.49L38.17,464.49Z" style="fill-rule:nonzero;"/>
            <path d="M41.73,462.08C41.84,463.06 42.61,463.75 43.66,463.75C44.42,463.75 45.18,463.42 45.64,463.06L45.64,464.03C45.16,464.34 44.44,464.61 43.59,464.61C41.99,464.61 40.78,463.41 40.78,461.73C40.78,460.12 41.96,458.86 43.53,458.86C45.12,458.86 46.19,460.06 46.19,461.57C46.19,461.74 46.17,461.97 46.14,462.08L41.73,462.08ZM41.73,461.33L45.28,461.33C45.27,460.33 44.5,459.67 43.53,459.67C42.55,459.68 41.8,460.4 41.73,461.33Z" style="fill-rule:nonzero;"/>
            <path d="M52.67,458.96L52.67,464.07C52.67,465.86 51.51,466.93 49.8,466.93C48.98,466.93 48.26,466.68 47.86,466.45L47.86,465.43C48.3,465.75 49.06,466.03 49.81,466.03C50.91,466.03 51.73,465.28 51.73,464.18L51.73,463.28C51.33,463.97 50.6,464.44 49.66,464.44C48.12,464.44 46.97,463.24 46.97,461.65C46.97,460.07 48.12,458.85 49.66,458.85C50.6,458.85 51.34,459.33 51.73,460.05L51.73,458.96L52.67,458.96ZM49.83,459.8C48.78,459.8 47.98,460.62 47.98,461.66C47.98,462.71 48.77,463.53 49.83,463.53C50.91,463.53 51.69,462.71 51.69,461.66C51.69,460.62 50.9,459.8 49.83,459.8Z" style="fill-rule:nonzero;"/>
            <path d="M55.2,459.72C55.46,459.21 55.93,458.86 56.63,458.86C56.78,458.86 56.95,458.88 57.09,458.92L57.09,459.93C56.91,459.85 56.67,459.79 56.42,459.79C55.63,459.79 55.23,460.36 55.2,461.21L55.2,464.5L54.26,464.5L54.26,458.98L55.2,458.98L55.2,459.72Z" style="fill-rule:nonzero;"/>
            <path d="M58.22,459.24C58.63,459.04 59.2,458.85 59.81,458.85C61.06,458.85 61.94,459.48 61.94,460.97L61.94,464.48L61,464.48L61,463.88C60.71,464.31 60.18,464.59 59.55,464.59C58.34,464.59 57.62,463.75 57.62,462.75C57.62,461.73 58.42,460.94 59.56,460.94C60.16,460.94 60.73,461.25 61,461.59L61,460.95C61,460.07 60.38,459.7 59.72,459.7C59.18,459.7 58.67,459.88 58.22,460.15L58.22,459.24ZM59.77,463.88C60.44,463.88 60.98,463.39 60.98,462.77C60.98,462.17 60.41,461.68 59.77,461.68C59.1,461.68 58.56,462.17 58.56,462.77C58.56,463.39 59.11,463.88 59.77,463.88Z" style="fill-rule:nonzero;"/>
            <path d="M64.38,459.85C64.69,459.26 65.23,458.86 66.04,458.86C67.31,458.86 68.11,459.79 68.11,461.05L68.11,464.5L67.17,464.5L67.17,461.28C67.17,460.41 66.64,459.79 65.78,459.79C64.93,459.79 64.42,460.36 64.39,461.21L64.39,464.5L63.45,464.5L63.45,458.98L64.39,458.98L64.39,459.85L64.38,459.85Z" style="fill-rule:nonzero;"/>
            <path d="M70.06,464.49L70.06,459.78L69.03,459.78L69.03,458.96L70.11,458.96L70.11,457.61L71.01,457.37L71.01,458.96L72.1,458.96L72.1,459.78L71.01,459.78L71.01,464.49L70.06,464.49Z" style="fill-rule:nonzero;"/>
            <path d="M79.53,458.19C79.11,457.86 78.5,457.59 77.85,457.59C77.01,457.59 76.5,458.02 76.5,458.67C76.5,459.07 76.73,459.38 77.21,459.69L78.55,460.53C79.5,461.13 79.85,461.71 79.85,462.51C79.85,463.61 79.04,464.61 77.41,464.61C76.63,464.61 75.96,464.37 75.52,464.15L75.52,463C75.93,463.34 76.59,463.69 77.39,463.69C78.32,463.69 78.82,463.16 78.82,462.56C78.82,462.15 78.55,461.78 77.98,461.43L76.65,460.59C75.77,460.05 75.45,459.47 75.45,458.7C75.45,457.71 76.12,456.68 77.87,456.68C78.54,456.68 79.12,456.86 79.52,457.1L79.52,458.19L79.53,458.19Z" style="fill-rule:nonzero;"/>
            <path d="M83.62,458.86C85.25,458.86 86.49,460.12 86.49,461.73C86.49,463.36 85.25,464.61 83.62,464.61C82.01,464.61 80.75,463.36 80.75,461.73C80.76,460.12 82.01,458.86 83.62,458.86ZM83.62,463.69C84.71,463.69 85.52,462.82 85.52,461.73C85.52,460.65 84.7,459.79 83.62,459.79C82.54,459.79 81.73,460.65 81.73,461.73C81.73,462.82 82.55,463.69 83.62,463.69Z" style="fill-rule:nonzero;"/>
            <path d="M88.65,459.85C88.96,459.26 89.5,458.86 90.31,458.86C91.58,458.86 92.38,459.79 92.38,461.05L92.38,464.5L91.44,464.5L91.44,461.28C91.44,460.41 90.91,459.79 90.05,459.79C89.2,459.79 88.69,460.36 88.66,461.21L88.66,464.5L87.72,464.5L87.72,458.98L88.66,458.98L88.66,459.85L88.65,459.85Z" style="fill-rule:nonzero;"/>
            <path d="M97.56,463.63C97.28,464.22 96.72,464.6 95.92,464.6C94.66,464.6 93.86,463.68 93.86,462.41L93.86,458.96L94.8,458.96L94.8,462.19C94.8,463.06 95.31,463.68 96.18,463.68C97.02,463.68 97.53,463.11 97.56,462.27L97.56,458.96L98.51,458.96L98.51,464.48L97.56,464.48L97.56,463.63Z" style="fill-rule:nonzero;"/>
            <path d="M101.04,459.73C101.33,459.2 101.86,458.86 102.57,458.86C103.39,458.86 104.05,459.27 104.35,460.01C104.6,459.31 105.19,458.86 106.04,458.86C107.14,458.86 107.98,459.65 107.98,460.92L107.98,464.49L107.04,464.49L107.04,461.15C107.04,460.27 106.52,459.79 105.78,459.79C105.04,459.79 104.51,460.28 104.51,461.15L104.51,464.49L103.57,464.49L103.57,461.15C103.57,460.27 103.05,459.79 102.32,459.79C101.58,459.79 101.07,460.24 101.04,461.07L101.04,464.49L100.1,464.49L100.1,458.97L101.04,458.97L101.04,459.73Z" style="fill-rule:nonzero;"/>
            <path d="M113.16,463.63C112.88,464.22 112.32,464.6 111.52,464.6C110.26,464.6 109.46,463.68 109.46,462.41L109.46,458.96L110.4,458.96L110.4,462.19C110.4,463.06 110.91,463.68 111.78,463.68C112.62,463.68 113.13,463.11 113.16,462.27L113.16,458.96L114.11,458.96L114.11,464.48L113.16,464.48L113.16,463.63Z" style="fill-rule:nonzero;"/>
            <path d="M116.64,459.85C116.95,459.26 117.49,458.86 118.3,458.86C119.57,458.86 120.37,459.79 120.37,461.05L120.37,464.5L119.43,464.5L119.43,461.28C119.43,460.41 118.9,459.79 118.04,459.79C117.19,459.79 116.68,460.36 116.65,461.21L116.65,464.5L115.71,464.5L115.71,458.98L116.65,458.98L116.65,459.85L116.64,459.85Z" style="fill-rule:nonzero;"/>
            <path d="M126.34,463.39C125.94,464.13 125.19,464.6 124.27,464.6C122.67,464.6 121.53,463.35 121.53,461.72C121.53,460.11 122.68,458.85 124.27,458.85C125.2,458.85 125.95,459.34 126.34,460.07L126.34,456.66L127.29,456.66L127.29,464.48L126.34,464.48L126.34,463.39ZM124.43,459.79C123.34,459.79 122.5,460.66 122.5,461.73C122.5,462.82 123.34,463.68 124.43,463.68C125.53,463.68 126.35,462.82 126.35,461.73C126.34,460.66 125.53,459.79 124.43,459.79Z" style="fill-rule:nonzero;"/>
            <path d="M129.32,456.61C129.69,456.61 129.95,456.88 129.95,457.23C129.95,457.58 129.69,457.84 129.32,457.84C128.98,457.84 128.71,457.58 128.71,457.23C128.71,456.88 128.98,456.61 129.32,456.61ZM129.8,464.49L128.86,464.49L128.86,458.97L129.8,458.97L129.8,464.49Z" style="fill-rule:nonzero;"/>
        </g>
    </g>
</svg>
