<?xml version="1.0" encoding="UTF-8" standalone="no"?>
<!DOCTYPE svg PUBLIC "-//W3C//DTD SVG 1.1//EN" "http://www.w3.org/Graphics/SVG/1.1/DTD/svg11.dtd">
<svg width="100%" height="100%" viewBox="0 0 2000 1500" version="1.1" xmlns="http://www.w3.org/2000/svg" xmlns:xlink="http://www.w3.org/1999/xlink" xml:space="preserve" xmlns:serif="http://www.serif.com/" style="fill-rule:evenodd;clip-rule:evenodd;stroke-linejoin:round;stroke-miterlimit:2;">
    <g id="レイヤー1">
        <rect x="0" y="0" width="2000" height="1500" style="fill:white;"/>
    </g>
    <g transform="matrix(1,0,0,1,2.50607,-74.7874)">
        <g transform="matrix(4.19294,0,0,4.19294,226.689,15.4137)">
            <g>
                <path d="M74.83,70.69C72.67,71.86 70.11,72.58 67.37,72.58C58.43,72.58 51.64,65.75 51.64,56.81C51.64,47.87 58.42,41.04 67.37,41.04C70.11,41.04 72.67,41.76 74.83,42.93L74.83,48.86C72.99,47.24 70.34,46.16 67.37,46.16C61.39,46.16 56.9,50.88 56.9,56.81C56.9,62.74 61.39,67.46 67.37,67.46C70.34,67.46 73.03,66.38 74.83,64.81L74.83,70.69Z" style="fill-rule:nonzero;"/>
                <rect x="79.47" y="56.94" width="11.73" height="4.63" style="fill-rule:nonzero;"/>
                <path d="M112.45,48.18C110.83,46.92 108.27,45.89 105.8,45.89C102.88,45.89 101.26,47.33 101.26,49.35C101.26,50.65 102.11,51.73 103.78,52.76L108.45,55.68C112.36,58.02 113.84,60.49 113.84,63.81C113.84,68.39 110.6,72.57 103.87,72.57C100.77,72.57 98.07,71.72 96.23,70.82L96.23,65.07C97.85,66.37 100.68,67.72 103.64,67.72C106.74,67.72 108.36,66.1 108.36,64.08C108.36,62.73 107.51,61.56 105.53,60.35L100.77,57.43C97,55.23 95.78,52.76 95.78,49.52C95.78,45.43 98.48,41.03 105.89,41.03C108.36,41.03 110.65,41.7 112.45,42.6L112.45,48.18Z" style="fill-rule:nonzero;"/>
                <path d="M128.53,49.53C135,49.53 140.03,54.52 140.03,61.03C140.03,67.5 135,72.58 128.53,72.58C122.01,72.58 117.03,67.5 117.03,61.03C117.03,54.52 122.02,49.53 128.53,49.53ZM128.53,67.73C132.26,67.73 135,64.72 135,61.04C135,57.36 132.26,54.35 128.53,54.35C124.85,54.35 122.01,57.36 122.01,61.04C122.02,64.72 124.85,67.73 128.53,67.73Z" style="fill-rule:nonzero;"/>
                <path d="M158.42,68.98C157.25,71.09 155.23,72.57 152.17,72.57C147.32,72.57 144.17,68.93 144.17,64.03L144.17,49.98L149.11,49.98L149.11,62.7C149.11,65.71 150.86,67.73 153.74,67.73C156.53,67.73 158.28,65.84 158.41,63.01L158.41,49.98L163.31,49.98L163.31,72.09L158.41,72.09L158.41,68.98L158.42,68.98Z" style="fill-rule:nonzero;"/>
                <path d="M174.01,53.12C175.18,50.96 177.25,49.53 180.21,49.53C185.11,49.53 188.25,53.12 188.25,58.07L188.25,72.09L183.31,72.09L183.31,59.32C183.31,56.35 181.56,54.33 178.64,54.33C175.85,54.33 174.1,56.22 174.01,59.05L174.01,72.08L169.07,72.08L169.07,49.98L174.01,49.98L174.01,53.12Z" style="fill-rule:nonzero;"/>
                <path d="M210.67,68.49C209.05,71.01 206.36,72.58 203.08,72.58C196.79,72.58 192.34,67.5 192.34,61.03C192.34,54.52 196.79,49.53 203.12,49.53C206.4,49.53 209.05,51.06 210.67,53.57L210.67,41.08L215.57,41.08L215.57,72.08L210.67,72.08L210.67,68.49ZM204.07,54.38C200.29,54.38 197.46,57.35 197.46,61.03C197.46,64.67 200.29,67.72 204.07,67.72C207.84,67.72 210.67,64.66 210.67,61.03C210.67,57.35 207.84,54.38 204.07,54.38Z" style="fill-rule:nonzero;"/>
                <path d="M253.36,70.69C251.2,71.86 248.64,72.58 245.9,72.58C236.96,72.58 230.18,65.75 230.18,56.81C230.18,47.87 236.96,41.04 245.9,41.04C248.64,41.04 251.2,41.76 253.36,42.93L253.36,48.86C251.52,47.24 248.87,46.16 245.9,46.16C239.92,46.16 235.43,50.88 235.43,56.81C235.43,62.74 239.92,67.46 245.9,67.46C248.87,67.46 251.56,66.38 253.36,64.81L253.36,70.69Z" style="fill-rule:nonzero;"/>
                <path d="M263.21,52.67C264.24,50.83 266.04,49.53 268.65,49.53C269.23,49.53 269.95,49.58 270.49,49.66L270.49,54.92C269.68,54.56 268.65,54.34 267.52,54.34C264.82,54.34 263.3,56.23 263.21,59.06L263.21,72.09L258.27,72.09L258.27,49.98L263.21,49.98L263.21,52.67Z" style="fill-rule:nonzero;"/>
                <path d="M277.63,62.69C278.12,65.88 280.77,68.08 284.37,68.08C287.29,68.08 290.17,67 292.1,65.65L292.1,70.55C290.21,71.63 287.34,72.57 284.01,72.57C277.49,72.57 272.64,67.81 272.64,61.02C272.64,54.51 277.36,49.52 283.74,49.52C290.07,49.52 294.25,54.33 294.25,60.17C294.25,61.02 294.11,62.06 293.94,62.69L277.63,62.69ZM277.59,58.88L289.5,58.88C289.41,55.78 286.94,53.67 283.7,53.67C280.37,53.66 277.9,56 277.59,58.88Z" style="fill-rule:nonzero;"/>
                <path d="M299.11,50.92C300.73,50.16 303.06,49.53 305.44,49.53C310.92,49.53 314.47,52.18 314.47,58.43L314.47,72.09L309.53,72.09L309.53,70.07C308.41,71.55 306.48,72.59 304.14,72.59C299.29,72.59 296.64,69.18 296.64,65.31C296.64,61.27 299.74,58.08 304.23,58.08C306.39,58.08 308.41,59.02 309.53,60.19L309.53,58.35C309.53,55.21 307.37,53.95 304.9,53.95C302.88,53.95 300.81,54.62 299.11,55.7L299.11,50.92ZM305.49,68.85C307.69,68.85 309.49,67.28 309.49,65.3C309.49,63.32 307.69,61.71 305.49,61.71C303.29,61.71 301.54,63.33 301.54,65.3C301.54,67.28 303.33,68.85 305.49,68.85Z" style="fill-rule:nonzero;"/>
                <path d="M321.67,72.08L321.67,54.2L317.94,54.2L317.94,49.98L321.94,49.98L321.94,44.81L326.61,43.73L326.61,49.98L330.61,49.98L330.61,54.2L326.61,54.2L326.61,72.08L321.67,72.08Z" style="fill-rule:nonzero;"/>
                <path d="M336.54,40.18C338.29,40.18 339.55,41.57 339.55,43.24C339.55,44.95 338.29,46.29 336.54,46.29C334.79,46.29 333.49,44.94 333.49,43.24C333.48,41.58 334.79,40.18 336.54,40.18ZM339.01,72.08L334.07,72.08L334.07,49.98L339.01,49.98L339.01,72.08Z" style="fill-rule:nonzero;"/>
                <path d="M354.83,49.53C361.3,49.53 366.33,54.52 366.33,61.03C366.33,67.5 361.3,72.58 354.83,72.58C348.32,72.58 343.33,67.5 343.33,61.03C343.33,54.52 348.31,49.53 354.83,49.53ZM354.83,67.73C358.56,67.73 361.3,64.72 361.3,61.04C361.3,57.36 358.56,54.35 354.83,54.35C351.15,54.35 348.32,57.36 348.32,61.04C348.31,64.72 351.14,67.73 354.83,67.73Z" style="fill-rule:nonzero;"/>
                <path d="M375.54,53.12C376.71,50.96 378.78,49.53 381.74,49.53C386.64,49.53 389.78,53.12 389.78,58.07L389.78,72.09L384.84,72.09L384.84,59.32C384.84,56.35 383.09,54.33 380.17,54.33C377.38,54.33 375.63,56.22 375.54,59.05L375.54,72.08L370.6,72.08L370.6,49.98L375.54,49.98L375.54,53.12Z" style="fill-rule:nonzero;"/>
                <path d="M407.18,55.42C405.74,54.48 403.9,53.85 402.19,53.85C400.3,53.85 399.31,54.79 399.31,56.01C399.31,56.95 399.9,57.45 400.97,58.12L404.52,60.23C407.26,61.89 408.2,63.91 408.2,66.07C408.2,69.89 405.28,72.58 400.29,72.58C398.18,72.58 396.02,72 394.54,71.32L394.54,66.24C395.66,67.23 398,68.31 400.02,68.31C402,68.31 403.08,67.32 403.08,66.02C403.08,65.12 402.59,64.4 401.19,63.59L397.42,61.34C395.13,59.99 394.23,58.02 394.23,55.86C394.23,52.18 397.02,49.52 402.05,49.52C403.89,49.52 405.78,49.92 407.17,50.42L407.17,55.42L407.18,55.42Z" style="fill-rule:nonzero;"/>
            </g>
        </g>
        <g transform="matrix(0.730022,0,0,0.730022,19.2347,69.3272)">
            <g transform="matrix(1.03774,0,0,1.03774,-129.11,-1148.82)">
                <circle cx="365.324" cy="1347.95" r="191.401" style="fill:white;"/>
            </g>
            <g transform="matrix(1.33831,0,0,1.33831,-622.839,-614.944)">
                <path d="M652.644,529.313C696.491,529.52 738.76,556.233 757.753,595.624C774.062,629.448 772.713,671.234 754.137,703.983C730.303,746 679.063,770.685 630.126,761.297C582.575,752.174 542.506,711.052 536.167,661.244C530.004,612.822 557.195,561.573 602.821,540.256C618.005,533.161 634.703,529.449 651.51,529.315C651.888,529.313 652.266,529.313 652.644,529.313ZM651.926,541.4C612.417,541.586 574.28,565.866 557.39,601.448C543.047,631.665 544.329,668.792 560.908,698.02C582.272,735.683 628.225,757.848 672.128,749.427C714.766,741.248 750.373,704.63 756.289,660.374C762.14,616.615 737.697,570.41 696.594,551.206C682.989,544.849 668.038,541.522 652.945,541.401C652.605,541.4 652.265,541.399 651.926,541.4Z"/>
            </g>
            <g transform="matrix(1.94107,0,0,1.94107,-16.0033,-650.834)">
                <g transform="matrix(0.344735,0,0,0.344735,-87.864,203.034)">
                    <path d="M653.06,523.272C705.752,523.776 755.717,561.263 770.465,611.946C782.382,652.898 771.096,699.684 741.853,730.723C719.107,754.866 686.576,769.113 653.06,769.433C653.06,769.433 640.633,767.573 640.192,757.9C639.852,750.459 646.596,745.522 656.093,745.19C697.416,743.486 735.752,713.533 747.254,674.005C756.888,640.899 747.63,603.069 723.85,578.128C705.442,558.821 679.026,547.527 652.228,547.442C652.228,547.442 637.367,542.609 640.72,531.78C642.239,526.874 645.562,523.535 652.304,523.269C652.556,523.27 652.808,523.271 653.06,523.272Z"/>
                </g>
                <g transform="matrix(0.344735,0,0,0.344735,-87.864,279.563)">
                    <path d="M653.253,523.31C660.15,524.171 660.949,526.424 662.538,528.987C667.503,536.993 660.915,547.081 648.437,547.515C607.322,549.211 568.862,578.888 557.277,618.7C547.644,651.806 556.902,689.635 580.682,714.578C599.084,733.88 625.312,745.178 652.304,745.263C652.304,745.263 667.165,750.096 663.811,760.925C661.609,768.036 653.24,769.749 644.376,769.186C595.109,766.06 549.481,730.345 534.722,682.937C516.402,624.088 549.074,553.058 609.959,530.747C623.467,525.797 637.843,523.315 652.228,523.269C652.569,523.283 652.911,523.296 653.253,523.31Z"/>
                </g>
            </g>
            <g transform="matrix(1.18856e-16,1.94107,-1.94107,1.18856e-16,1150.83,-16.0033)">
                <g transform="matrix(0.344735,0,0,0.344735,-87.864,203.034)">
                    <path d="M653.06,523.272C705.752,523.776 755.717,561.263 770.465,611.946C782.382,652.898 771.096,699.684 741.853,730.723C719.107,754.866 686.576,769.113 653.06,769.433C653.06,769.433 640.633,767.573 640.192,757.9C639.852,750.459 646.596,745.522 656.093,745.19C697.416,743.486 735.752,713.533 747.254,674.005C756.888,640.899 747.63,603.069 723.85,578.128C705.442,558.821 679.026,547.527 652.228,547.442C652.228,547.442 637.367,542.609 640.72,531.78C642.239,526.874 645.562,523.535 652.304,523.269C652.556,523.27 652.808,523.271 653.06,523.272Z"/>
                </g>
                <g transform="matrix(0.344735,0,0,0.344735,-87.864,279.563)">
                    <path d="M653.253,523.31C660.15,524.171 660.949,526.424 662.538,528.987C667.503,536.993 660.915,547.081 648.437,547.515C607.322,549.211 568.862,578.888 557.277,618.7C547.644,651.806 556.902,689.635 580.682,714.578C599.084,733.88 625.312,745.178 652.304,745.263C652.304,745.263 667.165,750.096 663.811,760.925C661.609,768.036 653.24,769.749 644.376,769.186C595.109,766.06 549.481,730.345 534.722,682.937C516.402,624.088 549.074,553.058 609.959,530.747C623.467,525.797 637.843,523.315 652.228,523.269C652.569,523.283 652.911,523.296 653.253,523.31Z"/>
                </g>
            </g>
            <g transform="matrix(1.94107,0,0,1.94107,110.226,-964.985)">
                <g transform="matrix(1.272,0,0,1.272,-610.237,-19.5993)">
                    <circle cx="536.355" cy="507.496" r="24.055" style="fill:white;fill-opacity:0.98;"/>
                </g>
                <g transform="matrix(1.272,0,0,1.272,-610.221,-19.5995)">
                    <path d="M536.531,480.296C548.984,480.414 560.696,489.985 563.068,502.352C566.028,517.781 553.422,534.587 536.531,534.695C523.589,534.778 511.345,524.442 509.443,511.464C507.237,496.405 519.494,480.662 535.83,480.301C536.063,480.297 536.297,480.296 536.531,480.296ZM536.22,486.586C526.707,486.675 517.791,493.901 515.87,503.281C513.434,515.174 523.092,528.322 536.22,528.406C546.163,528.47 555.579,520.55 557.044,510.552C558.739,498.984 549.334,486.867 536.761,486.589C536.581,486.586 536.4,486.585 536.22,486.586Z"/>
                </g>
            </g>
            <g transform="matrix(2.70937,0,0,2.70937,-1536.22,-700.673)">
                <g transform="matrix(1,0,0,1,155.57,-145.139)">
                    <path d="M575.823,496.024C575.823,535.88 543.535,568.191 503.704,568.191C463.876,568.191 431.587,535.88 431.587,496.021C431.587,456.164 463.876,423.855 503.704,423.855C543.535,423.855 575.823,456.164 575.823,496.024ZM558.055,496.022C558.055,466.006 533.703,441.637 503.707,441.637C473.712,441.637 449.36,466.006 449.36,496.022C449.36,526.039 473.712,550.408 503.707,550.408C533.703,550.408 558.055,526.039 558.055,496.022Z" style="fill-rule:nonzero;"/>
                </g>
                <g transform="matrix(-1,1.22465e-16,-1.22465e-16,-1,643.739,295.628)">
                    <path d="M0,-110.51C-3.378,-111.46 -6.872,-112.101 -10.384,-112.414L-9.318,-124.366C-5.07,-123.988 -0.842,-123.212 3.249,-122.062L0,-110.51ZM-31.331,-110.437L-34.634,-121.973C-30.549,-123.144 -26.324,-123.939 -22.077,-124.337L-20.957,-112.389C-24.467,-112.06 -27.957,-111.404 -31.331,-110.437M18.841,-101.176C16.024,-103.294 13,-105.16 9.851,-106.72L15.18,-117.472C18.989,-115.584 22.647,-113.328 26.054,-110.766L18.841,-101.176ZM-50.125,-101.016L-57.383,-110.573C-53.99,-113.149 -50.343,-115.422 -46.542,-117.329L-41.162,-106.602C-44.304,-105.027 -47.319,-103.147 -50.125,-101.016M33.065,-85.666C31.202,-88.649 29.049,-91.478 26.667,-94.075L35.511,-102.186C38.389,-99.048 40.991,-95.628 43.243,-92.022L33.065,-85.666ZM-64.277,-85.44L-74.485,-91.747C-72.251,-95.364 -69.666,-98.796 -66.8,-101.949L-57.919,-93.879C-60.29,-91.27 -62.429,-88.431 -64.277,-85.44M40.716,-66.093C40.063,-69.551 39.083,-72.963 37.803,-76.234L48.979,-80.606C50.53,-76.641 51.717,-72.508 52.507,-68.32L40.716,-66.093ZM-71.838,-65.828L-83.64,-68C-82.869,-72.192 -81.701,-76.331 -80.168,-80.302L-68.973,-75.983C-70.237,-72.706 -71.201,-69.289 -71.838,-65.828M52.549,-42.68L40.75,-44.871C41.39,-48.315 41.714,-51.855 41.714,-55.393L41.714,-55.593L53.714,-55.593L53.714,-55.393C53.714,-51.122 53.323,-46.845 52.549,-42.68M-83.601,-42.573C-84.38,-46.738 -84.779,-51.014 -84.786,-55.285L-72.786,-55.304C-72.78,-51.766 -72.451,-48.226 -71.806,-44.782L-83.601,-42.573ZM43.356,-18.947L33.159,-25.271C35.015,-28.266 36.6,-31.444 37.869,-34.718L49.058,-30.385C47.522,-26.42 45.604,-22.571 43.356,-18.947M-74.373,-18.858C-76.625,-22.477 -78.549,-26.321 -80.091,-30.284L-68.909,-34.637C-67.635,-31.364 -66.045,-28.188 -64.185,-25.198L-74.373,-18.858ZM26.223,-0.149L18.982,-9.718C21.787,-11.841 24.413,-14.238 26.787,-16.842L35.656,-8.758C32.787,-5.611 29.614,-2.715 26.223,-0.149M-57.213,-0.087C-60.608,-2.648 -63.785,-5.54 -66.657,-8.681L-57.801,-16.779C-55.423,-14.178 -52.794,-11.785 -49.985,-9.665L-57.213,-0.087ZM3.457,11.216L0.172,-0.325C3.55,-1.286 6.859,-2.571 10.01,-4.145L15.372,6.591C11.557,8.496 7.548,10.052 3.457,11.216M-34.426,11.247C-38.523,10.087 -42.534,8.536 -46.35,6.639L-41.004,-4.105C-37.853,-2.537 -34.541,-1.257 -31.158,-0.3L-34.426,11.247ZM-15.537,13.856C-17.649,13.856 -19.777,13.76 -21.862,13.571L-20.777,1.619C-17.302,1.936 -13.708,1.935 -10.205,1.611L-9.103,13.56C-11.23,13.756 -13.396,13.856 -15.537,13.856" style="fill:white;fill-rule:nonzero;"/>
                </g>
            </g>
        </g>
    </g>
    <g transform="matrix(1,0,0,1,2.50607,-164.817)">
        <g transform="matrix(0.730022,0,0,0.730022,19.2347,923.296)">
            <g transform="matrix(1.03774,0,0,1.03774,-129.11,-1148.82)">
                <circle cx="365.324" cy="1347.95" r="191.401" style="fill:white;"/>
            </g>
            <g transform="matrix(1.33831,0,0,1.33831,-622.839,-614.944)">
                <path d="M652.644,529.313C696.491,529.52 738.76,556.233 757.753,595.624C774.062,629.448 772.713,671.234 754.137,703.983C730.303,746 679.063,770.685 630.126,761.297C582.575,752.174 542.506,711.052 536.167,661.244C530.004,612.822 557.195,561.573 602.821,540.256C618.005,533.161 634.703,529.449 651.51,529.315C651.888,529.313 652.266,529.313 652.644,529.313ZM651.926,541.4C612.417,541.586 574.28,565.866 557.39,601.448C543.047,631.665 544.329,668.792 560.908,698.02C582.272,735.683 628.225,757.848 672.128,749.427C714.766,741.248 750.373,704.63 756.289,660.374C762.14,616.615 737.697,570.41 696.594,551.206C682.989,544.849 668.038,541.522 652.945,541.401C652.605,541.4 652.265,541.399 651.926,541.4Z"/>
            </g>
            <g transform="matrix(1.94107,0,0,1.94107,-16.0033,-650.834)">
                <g transform="matrix(0.344735,0,0,0.344735,-87.864,203.034)">
                    <path d="M653.06,523.272C705.752,523.776 755.717,561.263 770.465,611.946C782.382,652.898 771.096,699.684 741.853,730.723C719.107,754.866 686.576,769.113 653.06,769.433C653.06,769.433 640.633,767.573 640.192,757.9C639.852,750.459 646.596,745.522 656.093,745.19C697.416,743.486 735.752,713.533 747.254,674.005C756.888,640.899 747.63,603.069 723.85,578.128C705.442,558.821 679.026,547.527 652.228,547.442C652.228,547.442 637.367,542.609 640.72,531.78C642.239,526.874 645.562,523.535 652.304,523.269C652.556,523.27 652.808,523.271 653.06,523.272Z"/>
                </g>
                <g transform="matrix(0.344735,0,0,0.344735,-87.864,279.563)">
                    <path d="M653.253,523.31C660.15,524.171 660.949,526.424 662.538,528.987C667.503,536.993 660.915,547.081 648.437,547.515C607.322,549.211 568.862,578.888 557.277,618.7C547.644,651.806 556.902,689.635 580.682,714.578C599.084,733.88 625.312,745.178 652.304,745.263C652.304,745.263 667.165,750.096 663.811,760.925C661.609,768.036 653.24,769.749 644.376,769.186C595.109,766.06 549.481,730.345 534.722,682.937C516.402,624.088 549.074,553.058 609.959,530.747C623.467,525.797 637.843,523.315 652.228,523.269C652.569,523.283 652.911,523.296 653.253,523.31Z"/>
                </g>
            </g>
            <g transform="matrix(1.18856e-16,1.94107,-1.94107,1.18856e-16,1150.83,-16.0033)">
                <g transform="matrix(0.344735,0,0,0.344735,-87.864,203.034)">
                    <path d="M653.06,523.272C705.752,523.776 755.717,561.263 770.465,611.946C782.382,652.898 771.096,699.684 741.853,730.723C719.107,754.866 686.576,769.113 653.06,769.433C653.06,769.433 640.633,767.573 640.192,757.9C639.852,750.459 646.596,745.522 656.093,745.19C697.416,743.486 735.752,713.533 747.254,674.005C756.888,640.899 747.63,603.069 723.85,578.128C705.442,558.821 679.026,547.527 652.228,547.442C652.228,547.442 637.367,542.609 640.72,531.78C642.239,526.874 645.562,523.535 652.304,523.269C652.556,523.27 652.808,523.271 653.06,523.272Z"/>
                </g>
                <g transform="matrix(0.344735,0,0,0.344735,-87.864,279.563)">
                    <path d="M653.253,523.31C660.15,524.171 660.949,526.424 662.538,528.987C667.503,536.993 660.915,547.081 648.437,547.515C607.322,549.211 568.862,578.888 557.277,618.7C547.644,651.806 556.902,689.635 580.682,714.578C599.084,733.88 625.312,745.178 652.304,745.263C652.304,745.263 667.165,750.096 663.811,760.925C661.609,768.036 653.24,769.749 644.376,769.186C595.109,766.06 549.481,730.345 534.722,682.937C516.402,624.088 549.074,553.058 609.959,530.747C623.467,525.797 637.843,523.315 652.228,523.269C652.569,523.283 652.911,523.296 653.253,523.31Z"/>
                </g>
            </g>
            <g transform="matrix(1.94107,0,0,1.94107,110.226,-964.985)">
                <g transform="matrix(1.272,0,0,1.272,-610.237,-19.5993)">
                    <circle cx="536.355" cy="507.496" r="24.055" style="fill:white;fill-opacity:0.98;"/>
                </g>
                <g transform="matrix(1.272,0,0,1.272,-610.221,-19.5995)">
                    <path d="M536.531,480.296C548.984,480.414 560.696,489.985 563.068,502.352C566.028,517.781 553.422,534.587 536.531,534.695C523.589,534.778 511.345,524.442 509.443,511.464C507.237,496.405 519.494,480.662 535.83,480.301C536.063,480.297 536.297,480.296 536.531,480.296ZM536.22,486.586C526.707,486.675 517.791,493.901 515.87,503.281C513.434,515.174 523.092,528.322 536.22,528.406C546.163,528.47 555.579,520.55 557.044,510.552C558.739,498.984 549.334,486.867 536.761,486.589C536.581,486.586 536.4,486.585 536.22,486.586Z"/>
                </g>
            </g>
            <g transform="matrix(2.70937,0,0,2.70937,-1536.22,-700.673)">
                <g transform="matrix(1,0,0,1,155.57,-145.139)">
                    <path d="M575.823,496.024C575.823,535.88 543.535,568.191 503.704,568.191C463.876,568.191 431.587,535.88 431.587,496.021C431.587,456.164 463.876,423.855 503.704,423.855C543.535,423.855 575.823,456.164 575.823,496.024ZM558.055,496.022C558.055,466.006 533.703,441.637 503.707,441.637C473.712,441.637 449.36,466.006 449.36,496.022C449.36,526.039 473.712,550.408 503.707,550.408C533.703,550.408 558.055,526.039 558.055,496.022Z" style="fill-rule:nonzero;"/>
                </g>
                <g transform="matrix(-1,1.22465e-16,-1.22465e-16,-1,643.739,295.628)">
                    <path d="M0,-110.51C-3.378,-111.46 -6.872,-112.101 -10.384,-112.414L-9.318,-124.366C-5.07,-123.988 -0.842,-123.212 3.249,-122.062L0,-110.51ZM-31.331,-110.437L-34.634,-121.973C-30.549,-123.144 -26.324,-123.939 -22.077,-124.337L-20.957,-112.389C-24.467,-112.06 -27.957,-111.404 -31.331,-110.437M18.841,-101.176C16.024,-103.294 13,-105.16 9.851,-106.72L15.18,-117.472C18.989,-115.584 22.647,-113.328 26.054,-110.766L18.841,-101.176ZM-50.125,-101.016L-57.383,-110.573C-53.99,-113.149 -50.343,-115.422 -46.542,-117.329L-41.162,-106.602C-44.304,-105.027 -47.319,-103.147 -50.125,-101.016M33.065,-85.666C31.202,-88.649 29.049,-91.478 26.667,-94.075L35.511,-102.186C38.389,-99.048 40.991,-95.628 43.243,-92.022L33.065,-85.666ZM-64.277,-85.44L-74.485,-91.747C-72.251,-95.364 -69.666,-98.796 -66.8,-101.949L-57.919,-93.879C-60.29,-91.27 -62.429,-88.431 -64.277,-85.44M40.716,-66.093C40.063,-69.551 39.083,-72.963 37.803,-76.234L48.979,-80.606C50.53,-76.641 51.717,-72.508 52.507,-68.32L40.716,-66.093ZM-71.838,-65.828L-83.64,-68C-82.869,-72.192 -81.701,-76.331 -80.168,-80.302L-68.973,-75.983C-70.237,-72.706 -71.201,-69.289 -71.838,-65.828M52.549,-42.68L40.75,-44.871C41.39,-48.315 41.714,-51.855 41.714,-55.393L41.714,-55.593L53.714,-55.593L53.714,-55.393C53.714,-51.122 53.323,-46.845 52.549,-42.68M-83.601,-42.573C-84.38,-46.738 -84.779,-51.014 -84.786,-55.285L-72.786,-55.304C-72.78,-51.766 -72.451,-48.226 -71.806,-44.782L-83.601,-42.573ZM43.356,-18.947L33.159,-25.271C35.015,-28.266 36.6,-31.444 37.869,-34.718L49.058,-30.385C47.522,-26.42 45.604,-22.571 43.356,-18.947M-74.373,-18.858C-76.625,-22.477 -78.549,-26.321 -80.091,-30.284L-68.909,-34.637C-67.635,-31.364 -66.045,-28.188 -64.185,-25.198L-74.373,-18.858ZM26.223,-0.149L18.982,-9.718C21.787,-11.841 24.413,-14.238 26.787,-16.842L35.656,-8.758C32.787,-5.611 29.614,-2.715 26.223,-0.149M-57.213,-0.087C-60.608,-2.648 -63.785,-5.54 -66.657,-8.681L-57.801,-16.779C-55.423,-14.178 -52.794,-11.785 -49.985,-9.665L-57.213,-0.087ZM3.457,11.216L0.172,-0.325C3.55,-1.286 6.859,-2.571 10.01,-4.145L15.372,6.591C11.557,8.496 7.548,10.052 3.457,11.216M-34.426,11.247C-38.523,10.087 -42.534,8.536 -46.35,6.639L-41.004,-4.105C-37.853,-2.537 -34.541,-1.257 -31.158,-0.3L-34.426,11.247ZM-15.537,13.856C-17.649,13.856 -19.777,13.76 -21.862,13.571L-20.777,1.619C-17.302,1.936 -13.708,1.935 -10.205,1.611L-9.103,13.56C-11.23,13.756 -13.396,13.856 -15.537,13.856" style="fill:white;fill-rule:nonzero;"/>
                </g>
            </g>
        </g>
        <g transform="matrix(6.99612,0,0,6.99612,-3529.55,-8116.06)">
            <g transform="matrix(1,0,0,1,539.063,955.475)">
                <path d="M42.71,363.52C41.42,364.22 39.88,364.65 38.24,364.65C32.88,364.65 28.81,360.56 28.81,355.2C28.81,349.84 32.88,345.75 38.24,345.75C39.88,345.75 41.42,346.18 42.71,346.88L42.71,350.43C41.61,349.46 40.02,348.81 38.24,348.81C34.66,348.81 31.96,351.64 31.96,355.19C31.96,358.75 34.65,361.57 38.24,361.57C40.02,361.57 41.63,360.92 42.71,359.98L42.71,363.52Z" style="fill-rule:nonzero;"/>
            </g>
            <g transform="matrix(1,0,0,1,539.063,955.475)">
                <rect x="45.48" y="355.28" width="7.03" height="2.77" style="fill-rule:nonzero;"/>
            </g>
            <g transform="matrix(1,0,0,1,539.063,955.475)">
                <path d="M65.24,350.03C64.27,349.28 62.74,348.66 61.25,348.66C59.5,348.66 58.53,349.52 58.53,350.73C58.53,351.51 59.04,352.16 60.04,352.78L62.84,354.53C65.18,355.93 66.07,357.41 66.07,359.41C66.07,362.16 64.13,364.66 60.09,364.66C58.23,364.66 56.62,364.15 55.51,363.61L55.51,360.16C56.48,360.94 58.18,361.75 59.95,361.75C61.81,361.75 62.78,360.78 62.78,359.57C62.78,358.76 62.27,358.06 61.08,357.33L58.23,355.58C55.97,354.26 55.24,352.78 55.24,350.84C55.24,348.39 56.86,345.75 61.3,345.75C62.78,345.75 64.15,346.15 65.23,346.69L65.23,350.03L65.24,350.03Z" style="fill-rule:nonzero;"/>
            </g>
            <g transform="matrix(1,0,0,1,539.063,955.475)">
                <path d="M74.88,350.84C78.76,350.84 81.77,353.83 81.77,357.73C81.77,361.61 78.75,364.65 74.88,364.65C70.97,364.65 67.99,361.61 67.99,357.73C67.99,353.82 70.98,350.84 74.88,350.84ZM74.88,361.74C77.12,361.74 78.76,359.94 78.76,357.73C78.76,355.52 77.12,353.72 74.88,353.72C72.67,353.72 70.97,355.52 70.97,357.73C70.98,359.94 72.67,361.74 74.88,361.74Z" style="fill-rule:nonzero;"/>
            </g>
            <g transform="matrix(1,0,0,1,539.063,955.475)">
                <path d="M92.79,362.5C92.09,363.77 90.88,364.65 89.05,364.65C86.14,364.65 84.26,362.47 84.26,359.53L84.26,351.1L87.22,351.1L87.22,358.72C87.22,360.52 88.27,361.74 89.99,361.74C91.66,361.74 92.71,360.61 92.79,358.91L92.79,351.1L95.73,351.1L95.73,364.35L92.79,364.35L92.79,362.5Z" style="fill-rule:nonzero;"/>
            </g>
            <g transform="matrix(1,0,0,1,539.063,955.475)">
                <path d="M102.13,352.99C102.83,351.7 104.07,350.84 105.85,350.84C108.79,350.84 110.67,352.99 110.67,355.96L110.67,364.36L107.71,364.36L107.71,356.71C107.71,354.93 106.66,353.72 104.91,353.72C103.24,353.72 102.19,354.85 102.14,356.55L102.14,364.36L99.18,364.36L99.18,351.1L102.14,351.1L102.14,352.99L102.13,352.99Z" style="fill-rule:nonzero;"/>
            </g>
            <g transform="matrix(1,0,0,1,539.063,955.475)">
                <path d="M124.1,362.2C123.13,363.71 121.51,364.65 119.55,364.65C115.78,364.65 113.11,361.61 113.11,357.73C113.11,353.82 115.78,350.84 119.57,350.84C121.54,350.84 123.12,351.76 124.09,353.26L124.09,345.77L127.03,345.77L127.03,364.35L124.09,364.35L124.09,362.2L124.1,362.2ZM120.14,353.74C117.88,353.74 116.18,355.52 116.18,357.73C116.18,359.91 117.88,361.74 120.14,361.74C122.4,361.74 124.1,359.91 124.1,357.73C124.1,355.52 122.41,353.74 120.14,353.74Z" style="fill-rule:nonzero;"/>
            </g>
            <g transform="matrix(1,0,0,1,539.063,955.475)">
                <path d="M149.68,363.52C148.39,364.22 146.85,364.65 145.21,364.65C139.85,364.65 135.78,360.56 135.78,355.2C135.78,349.84 139.85,345.75 145.21,345.75C146.85,345.75 148.39,346.18 149.68,346.88L149.68,350.43C148.58,349.46 146.99,348.81 145.21,348.81C141.63,348.81 138.93,351.64 138.93,355.19C138.93,358.75 141.62,361.57 145.21,361.57C146.99,361.57 148.6,360.92 149.68,359.98L149.68,363.52Z" style="fill-rule:nonzero;"/>
            </g>
            <g transform="matrix(1,0,0,1,539.063,955.475)">
                <path d="M155.58,352.72C156.2,351.62 157.28,350.84 158.84,350.84C159.19,350.84 159.62,350.87 159.94,350.92L159.94,354.07C159.46,353.86 158.84,353.72 158.16,353.72C156.54,353.72 155.63,354.85 155.57,356.55L155.57,364.36L152.61,364.36L152.61,351.1L155.57,351.1L155.57,352.72L155.58,352.72Z" style="fill-rule:nonzero;"/>
            </g>
            <g transform="matrix(1,0,0,1,539.063,955.475)">
                <path d="M164.22,358.73C164.52,360.64 166.1,361.96 168.26,361.96C170.01,361.96 171.73,361.31 172.89,360.5L172.89,363.44C171.76,364.09 170.04,364.65 168.04,364.65C164.13,364.65 161.23,361.8 161.23,357.73C161.23,353.82 164.06,350.84 167.88,350.84C171.68,350.84 174.18,353.72 174.18,357.22C174.18,357.73 174.1,358.35 173.99,358.73L164.22,358.73ZM164.19,356.44L171.33,356.44C171.28,354.58 169.79,353.32 167.86,353.32C165.86,353.31 164.38,354.71 164.19,356.44Z" style="fill-rule:nonzero;"/>
            </g>
            <g transform="matrix(1,0,0,1,539.063,955.475)">
                <path d="M177.09,351.67C178.06,351.21 179.46,350.84 180.89,350.84C184.18,350.84 186.3,352.43 186.3,356.17L186.3,364.36L183.34,364.36L183.34,363.15C182.67,364.04 181.51,364.66 180.11,364.66C177.2,364.66 175.61,362.61 175.61,360.3C175.61,357.88 177.47,355.96 180.16,355.96C181.45,355.96 182.66,356.53 183.34,357.23L183.34,356.13C183.34,354.25 182.05,353.49 180.57,353.49C179.36,353.49 178.12,353.89 177.1,354.54L177.1,351.67L177.09,351.67ZM180.91,362.42C182.23,362.42 183.31,361.48 183.31,360.29C183.31,359.1 182.23,358.13 180.91,358.13C179.59,358.13 178.54,359.1 178.54,360.29C178.54,361.47 179.62,362.42 180.91,362.42Z" style="fill-rule:nonzero;"/>
            </g>
            <g transform="matrix(1,0,0,1,539.063,955.475)">
                <path d="M190.61,364.34L190.61,353.63L188.38,353.63L188.38,351.1L190.78,351.1L190.78,348L193.58,347.35L193.58,351.09L195.98,351.09L195.98,353.62L193.58,353.62L193.58,364.34L190.61,364.34Z" style="fill-rule:nonzero;"/>
            </g>
            <g transform="matrix(1,0,0,1,539.063,955.475)">
                <path d="M199.52,345.23C200.57,345.23 201.32,346.06 201.32,347.06C201.32,348.08 200.57,348.89 199.52,348.89C198.47,348.89 197.69,348.08 197.69,347.06C197.69,346.07 198.47,345.23 199.52,345.23ZM201,364.35L198.04,364.35L198.04,351.1L201,351.1L201,364.35Z" style="fill-rule:nonzero;"/>
            </g>
            <g transform="matrix(1,0,0,1,539.063,955.475)">
                <path d="M210.48,350.84C214.36,350.84 217.37,353.83 217.37,357.73C217.37,361.61 214.35,364.65 210.48,364.65C206.57,364.65 203.59,361.61 203.59,357.73C203.58,353.82 206.57,350.84 210.48,350.84ZM210.48,361.74C212.72,361.74 214.36,359.94 214.36,357.73C214.36,355.52 212.72,353.72 210.48,353.72C208.27,353.72 206.57,355.52 206.57,357.73C206.57,359.94 208.27,361.74 210.48,361.74Z" style="fill-rule:nonzero;"/>
            </g>
            <g transform="matrix(1,0,0,1,539.063,955.475)">
                <path d="M222.89,352.99C223.59,351.7 224.83,350.84 226.61,350.84C229.55,350.84 231.43,352.99 231.43,355.96L231.43,364.36L228.47,364.36L228.47,356.71C228.47,354.93 227.42,353.72 225.67,353.72C224,353.72 222.95,354.85 222.9,356.55L222.9,364.36L219.94,364.36L219.94,351.1L222.9,351.1L222.9,352.99L222.89,352.99Z" style="fill-rule:nonzero;"/>
            </g>
            <g transform="matrix(1,0,0,1,539.063,955.475)">
                <path d="M241.85,354.36C240.99,353.79 239.88,353.42 238.86,353.42C237.73,353.42 237.14,353.99 237.14,354.71C237.14,355.28 237.49,355.57 238.14,355.98L240.27,357.25C241.91,358.25 242.48,359.46 242.48,360.75C242.48,363.04 240.73,364.65 237.74,364.65C236.47,364.65 235.18,364.3 234.29,363.9L234.29,360.86C234.96,361.45 236.36,362.1 237.58,362.1C238.77,362.1 239.41,361.51 239.41,360.73C239.41,360.19 239.11,359.76 238.28,359.28L236.02,357.93C234.65,357.12 234.11,355.94 234.11,354.64C234.11,352.43 235.78,350.84 238.8,350.84C239.9,350.84 241.04,351.08 241.87,351.38L241.87,354.36L241.85,354.36Z" style="fill-rule:nonzero;"/>
            </g>
            <g transform="matrix(1,0,0,1,539.063,955.475)">
                <rect x="28.79" y="369.96" width="0.98" height="7.71" style="fill-rule:nonzero;"/>
            </g>
            <g transform="matrix(1,0,0,1,539.063,955.475)">
                <path d="M32.49,373.02C32.8,372.43 33.34,372.03 34.15,372.03C35.42,372.03 36.22,372.96 36.22,374.22L36.22,377.67L35.28,377.67L35.28,374.45C35.28,373.58 34.75,372.96 33.89,372.96C33.04,372.96 32.53,373.53 32.5,374.38L32.5,377.67L31.56,377.67L31.56,372.15L32.5,372.15L32.5,373.02L32.49,373.02Z" style="fill-rule:nonzero;"/>
            </g>
            <g transform="matrix(1,0,0,1,539.063,955.475)">
                <path d="M38.17,377.66L38.17,372.95L37.14,372.95L37.14,372.13L38.22,372.13L38.22,370.78L39.12,370.54L39.12,372.13L40.21,372.13L40.21,372.95L39.12,372.95L39.12,377.66L38.17,377.66Z" style="fill-rule:nonzero;"/>
            </g>
            <g transform="matrix(1,0,0,1,539.063,955.475)">
                <path d="M41.73,375.25C41.84,376.23 42.61,376.92 43.66,376.92C44.42,376.92 45.18,376.59 45.64,376.23L45.64,377.2C45.16,377.51 44.44,377.78 43.59,377.78C41.99,377.78 40.78,376.58 40.78,374.9C40.78,373.29 41.96,372.03 43.53,372.03C45.12,372.03 46.19,373.23 46.19,374.74C46.19,374.91 46.17,375.14 46.14,375.25L41.73,375.25ZM41.73,374.5L45.28,374.5C45.27,373.5 44.5,372.84 43.53,372.84C42.55,372.85 41.8,373.57 41.73,374.5Z" style="fill-rule:nonzero;"/>
            </g>
            <g transform="matrix(1,0,0,1,539.063,955.475)">
                <path d="M52.67,372.13L52.67,377.24C52.67,379.03 51.51,380.1 49.8,380.1C48.98,380.1 48.26,379.85 47.86,379.62L47.86,378.6C48.3,378.92 49.06,379.2 49.81,379.2C50.91,379.2 51.73,378.45 51.73,377.35L51.73,376.45C51.33,377.14 50.6,377.61 49.66,377.61C48.12,377.61 46.97,376.41 46.97,374.82C46.97,373.24 48.12,372.02 49.66,372.02C50.6,372.02 51.34,372.5 51.73,373.22L51.73,372.13L52.67,372.13ZM49.83,372.97C48.78,372.97 47.98,373.79 47.98,374.83C47.98,375.88 48.77,376.7 49.83,376.7C50.91,376.7 51.69,375.88 51.69,374.83C51.69,373.79 50.9,372.97 49.83,372.97Z" style="fill-rule:nonzero;"/>
            </g>
            <g transform="matrix(1,0,0,1,539.063,955.475)">
                <path d="M55.2,372.89C55.46,372.38 55.93,372.03 56.63,372.03C56.78,372.03 56.95,372.05 57.09,372.09L57.09,373.1C56.91,373.02 56.67,372.96 56.42,372.96C55.63,372.96 55.23,373.53 55.2,374.38L55.2,377.67L54.26,377.67L54.26,372.15L55.2,372.15L55.2,372.89Z" style="fill-rule:nonzero;"/>
            </g>
            <g transform="matrix(1,0,0,1,539.063,955.475)">
                <path d="M58.22,372.42C58.63,372.22 59.2,372.03 59.81,372.03C61.06,372.03 61.94,372.66 61.94,374.15L61.94,377.66L61,377.66L61,377.06C60.71,377.49 60.18,377.77 59.55,377.77C58.34,377.77 57.62,376.93 57.62,375.93C57.62,374.91 58.42,374.12 59.56,374.12C60.16,374.12 60.73,374.43 61,374.77L61,374.13C61,373.25 60.38,372.88 59.72,372.88C59.18,372.88 58.67,373.06 58.22,373.33L58.22,372.42ZM59.77,377.05C60.44,377.05 60.98,376.56 60.98,375.94C60.98,375.34 60.41,374.85 59.77,374.85C59.1,374.85 58.56,375.34 58.56,375.94C58.56,376.56 59.11,377.05 59.77,377.05Z" style="fill-rule:nonzero;"/>
            </g>
            <g transform="matrix(1,0,0,1,539.063,955.475)">
                <path d="M64.38,373.02C64.69,372.43 65.23,372.03 66.04,372.03C67.31,372.03 68.11,372.96 68.11,374.22L68.11,377.67L67.17,377.67L67.17,374.45C67.17,373.58 66.64,372.96 65.78,372.96C64.93,372.96 64.42,373.53 64.39,374.38L64.39,377.67L63.45,377.67L63.45,372.15L64.39,372.15L64.39,373.02L64.38,373.02Z" style="fill-rule:nonzero;"/>
            </g>
            <g transform="matrix(1,0,0,1,539.063,955.475)">
                <path d="M70.06,377.66L70.06,372.95L69.03,372.95L69.03,372.13L70.11,372.13L70.11,370.78L71.01,370.54L71.01,372.13L72.1,372.13L72.1,372.95L71.01,372.95L71.01,377.66L70.06,377.66Z" style="fill-rule:nonzero;"/>
            </g>
            <g transform="matrix(1,0,0,1,539.063,955.475)">
                <path d="M79.53,371.36C79.11,371.03 78.5,370.76 77.85,370.76C77.01,370.76 76.5,371.19 76.5,371.84C76.5,372.24 76.73,372.55 77.21,372.86L78.55,373.7C79.5,374.3 79.85,374.88 79.85,375.68C79.85,376.78 79.04,377.78 77.41,377.78C76.63,377.78 75.96,377.54 75.52,377.32L75.52,376.18C75.93,376.52 76.59,376.87 77.39,376.87C78.32,376.87 78.82,376.34 78.82,375.74C78.82,375.33 78.55,374.96 77.98,374.61L76.65,373.77C75.77,373.23 75.45,372.65 75.45,371.88C75.45,370.89 76.12,369.86 77.87,369.86C78.54,369.86 79.12,370.04 79.52,370.28L79.52,371.36L79.53,371.36Z" style="fill-rule:nonzero;"/>
            </g>
            <g transform="matrix(1,0,0,1,539.063,955.475)">
                <path d="M83.62,372.03C85.25,372.03 86.49,373.29 86.49,374.9C86.49,376.53 85.25,377.78 83.62,377.78C82.01,377.78 80.75,376.53 80.75,374.9C80.76,373.29 82.01,372.03 83.62,372.03ZM83.62,376.86C84.71,376.86 85.52,375.99 85.52,374.9C85.52,373.82 84.7,372.96 83.62,372.96C82.54,372.96 81.73,373.82 81.73,374.9C81.73,375.99 82.55,376.86 83.62,376.86Z" style="fill-rule:nonzero;"/>
            </g>
            <g transform="matrix(1,0,0,1,539.063,955.475)">
                <path d="M88.65,373.02C88.96,372.43 89.5,372.03 90.31,372.03C91.58,372.03 92.38,372.96 92.38,374.22L92.38,377.67L91.44,377.67L91.44,374.45C91.44,373.58 90.91,372.96 90.05,372.96C89.2,372.96 88.69,373.53 88.66,374.38L88.66,377.67L87.72,377.67L87.72,372.15L88.66,372.15L88.66,373.02L88.65,373.02Z" style="fill-rule:nonzero;"/>
            </g>
            <g transform="matrix(1,0,0,1,539.063,955.475)">
                <path d="M97.56,376.8C97.28,377.39 96.72,377.77 95.92,377.77C94.66,377.77 93.86,376.85 93.86,375.58L93.86,372.13L94.8,372.13L94.8,375.36C94.8,376.23 95.31,376.85 96.18,376.85C97.02,376.85 97.53,376.28 97.56,375.44L97.56,372.13L98.51,372.13L98.51,377.65L97.56,377.65L97.56,376.8Z" style="fill-rule:nonzero;"/>
            </g>
            <g transform="matrix(1,0,0,1,539.063,955.475)">
                <path d="M101.04,372.9C101.33,372.37 101.86,372.03 102.57,372.03C103.39,372.03 104.05,372.44 104.35,373.18C104.6,372.48 105.19,372.03 106.04,372.03C107.14,372.03 107.98,372.82 107.98,374.09L107.98,377.66L107.04,377.66L107.04,374.32C107.04,373.44 106.52,372.96 105.78,372.96C105.04,372.96 104.51,373.45 104.51,374.32L104.51,377.66L103.57,377.66L103.57,374.32C103.57,373.44 103.05,372.96 102.32,372.96C101.58,372.96 101.07,373.41 101.04,374.24L101.04,377.66L100.1,377.66L100.1,372.14L101.04,372.14L101.04,372.9Z" style="fill-rule:nonzero;"/>
            </g>
            <g transform="matrix(1,0,0,1,539.063,955.475)">
                <path d="M113.16,376.8C112.88,377.39 112.32,377.77 111.52,377.77C110.26,377.77 109.46,376.85 109.46,375.58L109.46,372.13L110.4,372.13L110.4,375.36C110.4,376.23 110.91,376.85 111.78,376.85C112.62,376.85 113.13,376.28 113.16,375.44L113.16,372.13L114.11,372.13L114.11,377.65L113.16,377.65L113.16,376.8Z" style="fill-rule:nonzero;"/>
            </g>
            <g transform="matrix(1,0,0,1,539.063,955.475)">
                <path d="M116.64,373.02C116.95,372.43 117.49,372.03 118.3,372.03C119.57,372.03 120.37,372.96 120.37,374.22L120.37,377.67L119.43,377.67L119.43,374.45C119.43,373.58 118.9,372.96 118.04,372.96C117.19,372.96 116.68,373.53 116.65,374.38L116.65,377.67L115.71,377.67L115.71,372.15L116.65,372.15L116.65,373.02L116.64,373.02Z" style="fill-rule:nonzero;"/>
            </g>
            <g transform="matrix(1,0,0,1,539.063,955.475)">
                <path d="M126.34,376.56C125.94,377.3 125.19,377.77 124.27,377.77C122.67,377.77 121.53,376.52 121.53,374.89C121.53,373.28 122.68,372.02 124.27,372.02C125.2,372.02 125.95,372.51 126.34,373.24L126.34,369.83L127.29,369.83L127.29,377.65L126.34,377.65L126.34,376.56ZM124.43,372.96C123.34,372.96 122.5,373.83 122.5,374.9C122.5,375.99 123.34,376.85 124.43,376.85C125.53,376.85 126.35,375.99 126.35,374.9C126.34,373.83 125.53,372.96 124.43,372.96Z" style="fill-rule:nonzero;"/>
            </g>
            <g transform="matrix(1,0,0,1,539.063,955.475)">
                <path d="M129.32,369.78C129.69,369.78 129.95,370.05 129.95,370.4C129.95,370.75 129.69,371.01 129.32,371.01C128.98,371.01 128.71,370.75 128.71,370.4C128.71,370.05 128.98,369.78 129.32,369.78ZM129.8,377.66L128.86,377.66L128.86,372.14L129.8,372.14L129.8,377.66Z" style="fill-rule:nonzero;"/>
            </g>
        </g>
    </g>
    <g transform="matrix(0.676227,0,0,0.676227,145.703,171.806)">
        <g transform="matrix(1,0,0,1,2.84217e-14,-20.3759)">
            <g transform="matrix(1,0,0,1,3.93607,-51.0231)">
                <g transform="matrix(4.19294,0,0,4.19294,226.689,324.196)">
                    <path d="M74.83,70.69C72.67,71.86 70.11,72.58 67.37,72.58C58.43,72.58 51.64,65.75 51.64,56.81C51.64,47.87 58.42,41.04 67.37,41.04C70.11,41.04 72.67,41.76 74.83,42.93L74.83,48.86C72.99,47.24 70.34,46.16 67.37,46.16C61.39,46.16 56.9,50.88 56.9,56.81C56.9,62.74 61.39,67.46 67.37,67.46C70.34,67.46 73.03,66.38 74.83,64.81L74.83,70.69Z" style="fill-rule:nonzero;"/>
                </g>
                <g transform="matrix(4.19294,0,0,4.19294,226.689,324.196)">
                    <rect x="79.47" y="56.94" width="11.73" height="4.63" style="fill-rule:nonzero;"/>
                </g>
                <g transform="matrix(4.19294,0,0,4.19294,226.689,324.196)">
                    <path d="M112.45,48.18C110.83,46.92 108.27,45.89 105.8,45.89C102.88,45.89 101.26,47.33 101.26,49.35C101.26,50.65 102.11,51.73 103.78,52.76L108.45,55.68C112.36,58.02 113.84,60.49 113.84,63.81C113.84,68.39 110.6,72.57 103.87,72.57C100.77,72.57 98.07,71.72 96.23,70.82L96.23,65.07C97.85,66.37 100.68,67.72 103.64,67.72C106.74,67.72 108.36,66.1 108.36,64.08C108.36,62.73 107.51,61.56 105.53,60.35L100.77,57.43C97,55.23 95.78,52.76 95.78,49.52C95.78,45.43 98.48,41.03 105.89,41.03C108.36,41.03 110.65,41.7 112.45,42.6L112.45,48.18Z" style="fill-rule:nonzero;"/>
                </g>
                <g transform="matrix(4.19294,0,0,4.19294,226.689,324.196)">
                    <path d="M128.53,49.53C135,49.53 140.03,54.52 140.03,61.03C140.03,67.5 135,72.58 128.53,72.58C122.01,72.58 117.03,67.5 117.03,61.03C117.03,54.52 122.02,49.53 128.53,49.53ZM128.53,67.73C132.26,67.73 135,64.72 135,61.04C135,57.36 132.26,54.35 128.53,54.35C124.85,54.35 122.01,57.36 122.01,61.04C122.02,64.72 124.85,67.73 128.53,67.73Z" style="fill-rule:nonzero;"/>
                </g>
                <g transform="matrix(4.19294,0,0,4.19294,226.689,324.196)">
                    <path d="M158.42,68.98C157.25,71.09 155.23,72.57 152.17,72.57C147.32,72.57 144.17,68.93 144.17,64.03L144.17,49.98L149.11,49.98L149.11,62.7C149.11,65.71 150.86,67.73 153.74,67.73C156.53,67.73 158.28,65.84 158.41,63.01L158.41,49.98L163.31,49.98L163.31,72.09L158.41,72.09L158.41,68.98L158.42,68.98Z" style="fill-rule:nonzero;"/>
                </g>
                <g transform="matrix(4.19294,0,0,4.19294,226.689,324.196)">
                    <path d="M174.01,53.12C175.18,50.96 177.25,49.53 180.21,49.53C185.11,49.53 188.25,53.12 188.25,58.07L188.25,72.09L183.31,72.09L183.31,59.32C183.31,56.35 181.56,54.33 178.64,54.33C175.85,54.33 174.1,56.22 174.01,59.05L174.01,72.08L169.07,72.08L169.07,49.98L174.01,49.98L174.01,53.12Z" style="fill-rule:nonzero;"/>
                </g>
                <g transform="matrix(4.19294,0,0,4.19294,226.689,324.196)">
                    <path d="M210.67,68.49C209.05,71.01 206.36,72.58 203.08,72.58C196.79,72.58 192.34,67.5 192.34,61.03C192.34,54.52 196.79,49.53 203.12,49.53C206.4,49.53 209.05,51.06 210.67,53.57L210.67,41.08L215.57,41.08L215.57,72.08L210.67,72.08L210.67,68.49ZM204.07,54.38C200.29,54.38 197.46,57.35 197.46,61.03C197.46,64.67 200.29,67.72 204.07,67.72C207.84,67.72 210.67,64.66 210.67,61.03C210.67,57.35 207.84,54.38 204.07,54.38Z" style="fill-rule:nonzero;"/>
                </g>
            </g>
            <g transform="matrix(1,0,0,1,-744.672,112.185)">
                <g transform="matrix(4.19294,0,0,4.19294,226.689,324.196)">
                    <path d="M253.36,70.69C251.2,71.86 248.64,72.58 245.9,72.58C236.96,72.58 230.18,65.75 230.18,56.81C230.18,47.87 236.96,41.04 245.9,41.04C248.64,41.04 251.2,41.76 253.36,42.93L253.36,48.86C251.52,47.24 248.87,46.16 245.9,46.16C239.92,46.16 235.43,50.88 235.43,56.81C235.43,62.74 239.92,67.46 245.9,67.46C248.87,67.46 251.56,66.38 253.36,64.81L253.36,70.69Z" style="fill-rule:nonzero;"/>
                </g>
                <g transform="matrix(4.19294,0,0,4.19294,226.689,324.196)">
                    <path d="M263.21,52.67C264.24,50.83 266.04,49.53 268.65,49.53C269.23,49.53 269.95,49.58 270.49,49.66L270.49,54.92C269.68,54.56 268.65,54.34 267.52,54.34C264.82,54.34 263.3,56.23 263.21,59.06L263.21,72.09L258.27,72.09L258.27,49.98L263.21,49.98L263.21,52.67Z" style="fill-rule:nonzero;"/>
                </g>
                <g transform="matrix(4.19294,0,0,4.19294,226.689,324.196)">
                    <path d="M277.63,62.69C278.12,65.88 280.77,68.08 284.37,68.08C287.29,68.08 290.17,67 292.1,65.65L292.1,70.55C290.21,71.63 287.34,72.57 284.01,72.57C277.49,72.57 272.64,67.81 272.64,61.02C272.64,54.51 277.36,49.52 283.74,49.52C290.07,49.52 294.25,54.33 294.25,60.17C294.25,61.02 294.11,62.06 293.94,62.69L277.63,62.69ZM277.59,58.88L289.5,58.88C289.41,55.78 286.94,53.67 283.7,53.67C280.37,53.66 277.9,56 277.59,58.88Z" style="fill-rule:nonzero;"/>
                </g>
                <g transform="matrix(4.19294,0,0,4.19294,226.689,324.196)">
                    <path d="M299.11,50.92C300.73,50.16 303.06,49.53 305.44,49.53C310.92,49.53 314.47,52.18 314.47,58.43L314.47,72.09L309.53,72.09L309.53,70.07C308.41,71.55 306.48,72.59 304.14,72.59C299.29,72.59 296.64,69.18 296.64,65.31C296.64,61.27 299.74,58.08 304.23,58.08C306.39,58.08 308.41,59.02 309.53,60.19L309.53,58.35C309.53,55.21 307.37,53.95 304.9,53.95C302.88,53.95 300.81,54.62 299.11,55.7L299.11,50.92ZM305.49,68.85C307.69,68.85 309.49,67.28 309.49,65.3C309.49,63.32 307.69,61.71 305.49,61.71C303.29,61.71 301.54,63.33 301.54,65.3C301.54,67.28 303.33,68.85 305.49,68.85Z" style="fill-rule:nonzero;"/>
                </g>
                <g transform="matrix(4.19294,0,0,4.19294,226.689,324.196)">
                    <path d="M321.67,72.08L321.67,54.2L317.94,54.2L317.94,49.98L321.94,49.98L321.94,44.81L326.61,43.73L326.61,49.98L330.61,49.98L330.61,54.2L326.61,54.2L326.61,72.08L321.67,72.08Z" style="fill-rule:nonzero;"/>
                </g>
                <g transform="matrix(4.19294,0,0,4.19294,226.689,324.196)">
                    <path d="M336.54,40.18C338.29,40.18 339.55,41.57 339.55,43.24C339.55,44.95 338.29,46.29 336.54,46.29C334.79,46.29 333.49,44.94 333.49,43.24C333.48,41.58 334.79,40.18 336.54,40.18ZM339.01,72.08L334.07,72.08L334.07,49.98L339.01,49.98L339.01,72.08Z" style="fill-rule:nonzero;"/>
                </g>
                <g transform="matrix(4.19294,0,0,4.19294,226.689,324.196)">
                    <path d="M354.83,49.53C361.3,49.53 366.33,54.52 366.33,61.03C366.33,67.5 361.3,72.58 354.83,72.58C348.32,72.58 343.33,67.5 343.33,61.03C343.33,54.52 348.31,49.53 354.83,49.53ZM354.83,67.73C358.56,67.73 361.3,64.72 361.3,61.04C361.3,57.36 358.56,54.35 354.83,54.35C351.15,54.35 348.32,57.36 348.32,61.04C348.31,64.72 351.14,67.73 354.83,67.73Z" style="fill-rule:nonzero;"/>
                </g>
                <g transform="matrix(4.19294,0,0,4.19294,226.689,324.196)">
                    <path d="M375.54,53.12C376.71,50.96 378.78,49.53 381.74,49.53C386.64,49.53 389.78,53.12 389.78,58.07L389.78,72.09L384.84,72.09L384.84,59.32C384.84,56.35 383.09,54.33 380.17,54.33C377.38,54.33 375.63,56.22 375.54,59.05L375.54,72.08L370.6,72.08L370.6,49.98L375.54,49.98L375.54,53.12Z" style="fill-rule:nonzero;"/>
                </g>
                <g transform="matrix(4.19294,0,0,4.19294,226.689,324.196)">
                    <path d="M407.18,55.42C405.74,54.48 403.9,53.85 402.19,53.85C400.3,53.85 399.31,54.79 399.31,56.01C399.31,56.95 399.9,57.45 400.97,58.12L404.52,60.23C407.26,61.89 408.2,63.91 408.2,66.07C408.2,69.89 405.28,72.58 400.29,72.58C398.18,72.58 396.02,72 394.54,71.32L394.54,66.24C395.66,67.23 398,68.31 400.02,68.31C402,68.31 403.08,67.32 403.08,66.02C403.08,65.12 402.59,64.4 401.19,63.59L397.42,61.34C395.13,59.99 394.23,58.02 394.23,55.86C394.23,52.18 397.02,49.52 402.05,49.52C403.89,49.52 405.78,49.92 407.17,50.42L407.17,55.42L407.18,55.42Z" style="fill-rule:nonzero;"/>
                </g>
            </g>
        </g>
        <g transform="matrix(1.07955,0,0,1.07955,-183.314,302.714)">
            <g transform="matrix(1.03774,0,0,1.03774,-129.11,-1148.82)">
                <circle cx="365.324" cy="1347.95" r="191.401" style="fill:white;"/>
            </g>
            <g transform="matrix(1.33831,0,0,1.33831,-622.839,-614.944)">
                <path d="M652.644,529.313C696.491,529.52 738.76,556.233 757.753,595.624C774.062,629.448 772.713,671.234 754.137,703.983C730.303,746 679.063,770.685 630.126,761.297C582.575,752.174 542.506,711.052 536.167,661.244C530.004,612.822 557.195,561.573 602.821,540.256C618.005,533.161 634.703,529.449 651.51,529.315C651.888,529.313 652.266,529.313 652.644,529.313ZM651.926,541.4C612.417,541.586 574.28,565.866 557.39,601.448C543.047,631.665 544.329,668.792 560.908,698.02C582.272,735.683 628.225,757.848 672.128,749.427C714.766,741.248 750.373,704.63 756.289,660.374C762.14,616.615 737.697,570.41 696.594,551.206C682.989,544.849 668.038,541.522 652.945,541.401C652.605,541.4 652.265,541.399 651.926,541.4Z"/>
            </g>
            <g transform="matrix(1.94107,0,0,1.94107,-16.0033,-650.834)">
                <g transform="matrix(0.344735,0,0,0.344735,-87.864,203.034)">
                    <path d="M653.06,523.272C705.752,523.776 755.717,561.263 770.465,611.946C782.382,652.898 771.096,699.684 741.853,730.723C719.107,754.866 686.576,769.113 653.06,769.433C653.06,769.433 640.633,767.573 640.192,757.9C639.852,750.459 646.596,745.522 656.093,745.19C697.416,743.486 735.752,713.533 747.254,674.005C756.888,640.899 747.63,603.069 723.85,578.128C705.442,558.821 679.026,547.527 652.228,547.442C652.228,547.442 637.367,542.609 640.72,531.78C642.239,526.874 645.562,523.535 652.304,523.269C652.556,523.27 652.808,523.271 653.06,523.272Z"/>
                </g>
                <g transform="matrix(0.344735,0,0,0.344735,-87.864,279.563)">
                    <path d="M653.253,523.31C660.15,524.171 660.949,526.424 662.538,528.987C667.503,536.993 660.915,547.081 648.437,547.515C607.322,549.211 568.862,578.888 557.277,618.7C547.644,651.806 556.902,689.635 580.682,714.578C599.084,733.88 625.312,745.178 652.304,745.263C652.304,745.263 667.165,750.096 663.811,760.925C661.609,768.036 653.24,769.749 644.376,769.186C595.109,766.06 549.481,730.345 534.722,682.937C516.402,624.088 549.074,553.058 609.959,530.747C623.467,525.797 637.843,523.315 652.228,523.269C652.569,523.283 652.911,523.296 653.253,523.31Z"/>
                </g>
            </g>
            <g transform="matrix(1.18856e-16,1.94107,-1.94107,1.18856e-16,1150.83,-16.0033)">
                <g transform="matrix(0.344735,0,0,0.344735,-87.864,203.034)">
                    <path d="M653.06,523.272C705.752,523.776 755.717,561.263 770.465,611.946C782.382,652.898 771.096,699.684 741.853,730.723C719.107,754.866 686.576,769.113 653.06,769.433C653.06,769.433 640.633,767.573 640.192,757.9C639.852,750.459 646.596,745.522 656.093,745.19C697.416,743.486 735.752,713.533 747.254,674.005C756.888,640.899 747.63,603.069 723.85,578.128C705.442,558.821 679.026,547.527 652.228,547.442C652.228,547.442 637.367,542.609 640.72,531.78C642.239,526.874 645.562,523.535 652.304,523.269C652.556,523.27 652.808,523.271 653.06,523.272Z"/>
                </g>
                <g transform="matrix(0.344735,0,0,0.344735,-87.864,279.563)">
                    <path d="M653.253,523.31C660.15,524.171 660.949,526.424 662.538,528.987C667.503,536.993 660.915,547.081 648.437,547.515C607.322,549.211 568.862,578.888 557.277,618.7C547.644,651.806 556.902,689.635 580.682,714.578C599.084,733.88 625.312,745.178 652.304,745.263C652.304,745.263 667.165,750.096 663.811,760.925C661.609,768.036 653.24,769.749 644.376,769.186C595.109,766.06 549.481,730.345 534.722,682.937C516.402,624.088 549.074,553.058 609.959,530.747C623.467,525.797 637.843,523.315 652.228,523.269C652.569,523.283 652.911,523.296 653.253,523.31Z"/>
                </g>
            </g>
            <g transform="matrix(1.94107,0,0,1.94107,110.226,-964.985)">
                <g transform="matrix(1.272,0,0,1.272,-610.237,-19.5993)">
                    <circle cx="536.355" cy="507.496" r="24.055" style="fill:white;fill-opacity:0.98;"/>
                </g>
                <g transform="matrix(1.272,0,0,1.272,-610.221,-19.5995)">
                    <path d="M536.531,480.296C548.984,480.414 560.696,489.985 563.068,502.352C566.028,517.781 553.422,534.587 536.531,534.695C523.589,534.778 511.345,524.442 509.443,511.464C507.237,496.405 519.494,480.662 535.83,480.301C536.063,480.297 536.297,480.296 536.531,480.296ZM536.22,486.586C526.707,486.675 517.791,493.901 515.87,503.281C513.434,515.174 523.092,528.322 536.22,528.406C546.163,528.47 555.579,520.55 557.044,510.552C558.739,498.984 549.334,486.867 536.761,486.589C536.581,486.586 536.4,486.585 536.22,486.586Z"/>
                </g>
            </g>
            <g transform="matrix(2.70937,0,0,2.70937,-1536.22,-700.673)">
                <g transform="matrix(1,0,0,1,155.57,-145.139)">
                    <path d="M575.823,496.024C575.823,535.88 543.535,568.191 503.704,568.191C463.876,568.191 431.587,535.88 431.587,496.021C431.587,456.164 463.876,423.855 503.704,423.855C543.535,423.855 575.823,456.164 575.823,496.024ZM558.055,496.022C558.055,466.006 533.703,441.637 503.707,441.637C473.712,441.637 449.36,466.006 449.36,496.022C449.36,526.039 473.712,550.408 503.707,550.408C533.703,550.408 558.055,526.039 558.055,496.022Z" style="fill-rule:nonzero;"/>
                </g>
                <g transform="matrix(-1,1.22465e-16,-1.22465e-16,-1,643.739,295.628)">
                    <path d="M0,-110.51C-3.378,-111.46 -6.872,-112.101 -10.384,-112.414L-9.318,-124.366C-5.07,-123.988 -0.842,-123.212 3.249,-122.062L0,-110.51ZM-31.331,-110.437L-34.634,-121.973C-30.549,-123.144 -26.324,-123.939 -22.077,-124.337L-20.957,-112.389C-24.467,-112.06 -27.957,-111.404 -31.331,-110.437M18.841,-101.176C16.024,-103.294 13,-105.16 9.851,-106.72L15.18,-117.472C18.989,-115.584 22.647,-113.328 26.054,-110.766L18.841,-101.176ZM-50.125,-101.016L-57.383,-110.573C-53.99,-113.149 -50.343,-115.422 -46.542,-117.329L-41.162,-106.602C-44.304,-105.027 -47.319,-103.147 -50.125,-101.016M33.065,-85.666C31.202,-88.649 29.049,-91.478 26.667,-94.075L35.511,-102.186C38.389,-99.048 40.991,-95.628 43.243,-92.022L33.065,-85.666ZM-64.277,-85.44L-74.485,-91.747C-72.251,-95.364 -69.666,-98.796 -66.8,-101.949L-57.919,-93.879C-60.29,-91.27 -62.429,-88.431 -64.277,-85.44M40.716,-66.093C40.063,-69.551 39.083,-72.963 37.803,-76.234L48.979,-80.606C50.53,-76.641 51.717,-72.508 52.507,-68.32L40.716,-66.093ZM-71.838,-65.828L-83.64,-68C-82.869,-72.192 -81.701,-76.331 -80.168,-80.302L-68.973,-75.983C-70.237,-72.706 -71.201,-69.289 -71.838,-65.828M52.549,-42.68L40.75,-44.871C41.39,-48.315 41.714,-51.855 41.714,-55.393L41.714,-55.593L53.714,-55.593L53.714,-55.393C53.714,-51.122 53.323,-46.845 52.549,-42.68M-83.601,-42.573C-84.38,-46.738 -84.779,-51.014 -84.786,-55.285L-72.786,-55.304C-72.78,-51.766 -72.451,-48.226 -71.806,-44.782L-83.601,-42.573ZM43.356,-18.947L33.159,-25.271C35.015,-28.266 36.6,-31.444 37.869,-34.718L49.058,-30.385C47.522,-26.42 45.604,-22.571 43.356,-18.947M-74.373,-18.858C-76.625,-22.477 -78.549,-26.321 -80.091,-30.284L-68.909,-34.637C-67.635,-31.364 -66.045,-28.188 -64.185,-25.198L-74.373,-18.858ZM26.223,-0.149L18.982,-9.718C21.787,-11.841 24.413,-14.238 26.787,-16.842L35.656,-8.758C32.787,-5.611 29.614,-2.715 26.223,-0.149M-57.213,-0.087C-60.608,-2.648 -63.785,-5.54 -66.657,-8.681L-57.801,-16.779C-55.423,-14.178 -52.794,-11.785 -49.985,-9.665L-57.213,-0.087ZM3.457,11.216L0.172,-0.325C3.55,-1.286 6.859,-2.571 10.01,-4.145L15.372,6.591C11.557,8.496 7.548,10.052 3.457,11.216M-34.426,11.247C-38.523,10.087 -42.534,8.536 -46.35,6.639L-41.004,-4.105C-37.853,-2.537 -34.541,-1.257 -31.158,-0.3L-34.426,11.247ZM-15.537,13.856C-17.649,13.856 -19.777,13.76 -21.862,13.571L-20.777,1.619C-17.302,1.936 -13.708,1.935 -10.205,1.611L-9.103,13.56C-11.23,13.756 -13.396,13.856 -15.537,13.856" style="fill:white;fill-rule:nonzero;"/>
                </g>
            </g>
        </g>
    </g>
    <g transform="matrix(1,0,0,1,-2.2099,-162.109)">
        <g transform="matrix(0.730022,0,0,0.730022,23.9507,1302.56)">
            <g>
                <g>
                    <g transform="matrix(1.03774,0,0,1.03774,-129.11,-1148.82)">
                        <circle cx="365.324" cy="1347.95" r="191.401" style="fill:white;"/>
                    </g>
                    <g transform="matrix(1.33831,0,0,1.33831,-622.839,-614.944)">
                        <path d="M652.644,529.313C696.491,529.52 738.76,556.233 757.753,595.624C774.062,629.448 772.713,671.234 754.137,703.983C730.303,746 679.063,770.685 630.126,761.297C582.575,752.174 542.506,711.052 536.167,661.244C530.004,612.822 557.195,561.573 602.821,540.256C618.005,533.161 634.703,529.449 651.51,529.315C651.888,529.313 652.266,529.313 652.644,529.313ZM651.926,541.4C612.417,541.586 574.28,565.866 557.39,601.448C543.047,631.665 544.329,668.792 560.908,698.02C582.272,735.683 628.225,757.848 672.128,749.427C714.766,741.248 750.373,704.63 756.289,660.374C762.14,616.615 737.697,570.41 696.594,551.206C682.989,544.849 668.038,541.522 652.945,541.401C652.605,541.4 652.265,541.399 651.926,541.4Z"/>
                    </g>
                    <g transform="matrix(1.94107,0,0,1.94107,-16.0033,-650.834)">
                        <g transform="matrix(0.344735,0,0,0.344735,-87.864,203.034)">
                            <path d="M653.06,523.272C705.752,523.776 755.717,561.263 770.465,611.946C782.382,652.898 771.096,699.684 741.853,730.723C719.107,754.866 686.576,769.113 653.06,769.433C653.06,769.433 640.633,767.573 640.192,757.9C639.852,750.459 646.596,745.522 656.093,745.19C697.416,743.486 735.752,713.533 747.254,674.005C756.888,640.899 747.63,603.069 723.85,578.128C705.442,558.821 679.026,547.527 652.228,547.442C652.228,547.442 637.367,542.609 640.72,531.78C642.239,526.874 645.562,523.535 652.304,523.269C652.556,523.27 652.808,523.271 653.06,523.272Z"/>
                        </g>
                        <g transform="matrix(0.344735,0,0,0.344735,-87.864,279.563)">
                            <path d="M653.253,523.31C660.15,524.171 660.949,526.424 662.538,528.987C667.503,536.993 660.915,547.081 648.437,547.515C607.322,549.211 568.862,578.888 557.277,618.7C547.644,651.806 556.902,689.635 580.682,714.578C599.084,733.88 625.312,745.178 652.304,745.263C652.304,745.263 667.165,750.096 663.811,760.925C661.609,768.036 653.24,769.749 644.376,769.186C595.109,766.06 549.481,730.345 534.722,682.937C516.402,624.088 549.074,553.058 609.959,530.747C623.467,525.797 637.843,523.315 652.228,523.269C652.569,523.283 652.911,523.296 653.253,523.31Z"/>
                        </g>
                    </g>
                    <g transform="matrix(1.18856e-16,1.94107,-1.94107,1.18856e-16,1150.83,-16.0033)">
                        <g transform="matrix(0.344735,0,0,0.344735,-87.864,203.034)">
                            <path d="M653.06,523.272C705.752,523.776 755.717,561.263 770.465,611.946C782.382,652.898 771.096,699.684 741.853,730.723C719.107,754.866 686.576,769.113 653.06,769.433C653.06,769.433 640.633,767.573 640.192,757.9C639.852,750.459 646.596,745.522 656.093,745.19C697.416,743.486 735.752,713.533 747.254,674.005C756.888,640.899 747.63,603.069 723.85,578.128C705.442,558.821 679.026,547.527 652.228,547.442C652.228,547.442 637.367,542.609 640.72,531.78C642.239,526.874 645.562,523.535 652.304,523.269C652.556,523.27 652.808,523.271 653.06,523.272Z"/>
                        </g>
                        <g transform="matrix(0.344735,0,0,0.344735,-87.864,279.563)">
                            <path d="M653.253,523.31C660.15,524.171 660.949,526.424 662.538,528.987C667.503,536.993 660.915,547.081 648.437,547.515C607.322,549.211 568.862,578.888 557.277,618.7C547.644,651.806 556.902,689.635 580.682,714.578C599.084,733.88 625.312,745.178 652.304,745.263C652.304,745.263 667.165,750.096 663.811,760.925C661.609,768.036 653.24,769.749 644.376,769.186C595.109,766.06 549.481,730.345 534.722,682.937C516.402,624.088 549.074,553.058 609.959,530.747C623.467,525.797 637.843,523.315 652.228,523.269C652.569,523.283 652.911,523.296 653.253,523.31Z"/>
                        </g>
                    </g>
                    <g transform="matrix(1.94107,0,0,1.94107,110.226,-964.985)">
                        <g transform="matrix(1.272,0,0,1.272,-610.237,-19.5993)">
                            <circle cx="536.355" cy="507.496" r="24.055" style="fill:white;fill-opacity:0.98;"/>
                        </g>
                        <g transform="matrix(1.272,0,0,1.272,-610.221,-19.5995)">
                            <path d="M536.531,480.296C548.984,480.414 560.696,489.985 563.068,502.352C566.028,517.781 553.422,534.587 536.531,534.695C523.589,534.778 511.345,524.442 509.443,511.464C507.237,496.405 519.494,480.662 535.83,480.301C536.063,480.297 536.297,480.296 536.531,480.296ZM536.22,486.586C526.707,486.675 517.791,493.901 515.87,503.281C513.434,515.174 523.092,528.322 536.22,528.406C546.163,528.47 555.579,520.55 557.044,510.552C558.739,498.984 549.334,486.867 536.761,486.589C536.581,486.586 536.4,486.585 536.22,486.586Z"/>
                        </g>
                    </g>
                    <g transform="matrix(2.70937,0,0,2.70937,-1536.22,-700.673)">
                        <g transform="matrix(1,0,0,1,155.57,-145.139)">
                            <path d="M575.823,496.024C575.823,535.88 543.535,568.191 503.704,568.191C463.876,568.191 431.587,535.88 431.587,496.021C431.587,456.164 463.876,423.855 503.704,423.855C543.535,423.855 575.823,456.164 575.823,496.024ZM558.055,496.022C558.055,466.006 533.703,441.637 503.707,441.637C473.712,441.637 449.36,466.006 449.36,496.022C449.36,526.039 473.712,550.408 503.707,550.408C533.703,550.408 558.055,526.039 558.055,496.022Z" style="fill-rule:nonzero;"/>
                        </g>
                        <g transform="matrix(-1,1.22465e-16,-1.22465e-16,-1,643.739,295.628)">
                            <path d="M0,-110.51C-3.378,-111.46 -6.872,-112.101 -10.384,-112.414L-9.318,-124.366C-5.07,-123.988 -0.842,-123.212 3.249,-122.062L0,-110.51ZM-31.331,-110.437L-34.634,-121.973C-30.549,-123.144 -26.324,-123.939 -22.077,-124.337L-20.957,-112.389C-24.467,-112.06 -27.957,-111.404 -31.331,-110.437M18.841,-101.176C16.024,-103.294 13,-105.16 9.851,-106.72L15.18,-117.472C18.989,-115.584 22.647,-113.328 26.054,-110.766L18.841,-101.176ZM-50.125,-101.016L-57.383,-110.573C-53.99,-113.149 -50.343,-115.422 -46.542,-117.329L-41.162,-106.602C-44.304,-105.027 -47.319,-103.147 -50.125,-101.016M33.065,-85.666C31.202,-88.649 29.049,-91.478 26.667,-94.075L35.511,-102.186C38.389,-99.048 40.991,-95.628 43.243,-92.022L33.065,-85.666ZM-64.277,-85.44L-74.485,-91.747C-72.251,-95.364 -69.666,-98.796 -66.8,-101.949L-57.919,-93.879C-60.29,-91.27 -62.429,-88.431 -64.277,-85.44M40.716,-66.093C40.063,-69.551 39.083,-72.963 37.803,-76.234L48.979,-80.606C50.53,-76.641 51.717,-72.508 52.507,-68.32L40.716,-66.093ZM-71.838,-65.828L-83.64,-68C-82.869,-72.192 -81.701,-76.331 -80.168,-80.302L-68.973,-75.983C-70.237,-72.706 -71.201,-69.289 -71.838,-65.828M52.549,-42.68L40.75,-44.871C41.39,-48.315 41.714,-51.855 41.714,-55.393L41.714,-55.593L53.714,-55.593L53.714,-55.393C53.714,-51.122 53.323,-46.845 52.549,-42.68M-83.601,-42.573C-84.38,-46.738 -84.779,-51.014 -84.786,-55.285L-72.786,-55.304C-72.78,-51.766 -72.451,-48.226 -71.806,-44.782L-83.601,-42.573ZM43.356,-18.947L33.159,-25.271C35.015,-28.266 36.6,-31.444 37.869,-34.718L49.058,-30.385C47.522,-26.42 45.604,-22.571 43.356,-18.947M-74.373,-18.858C-76.625,-22.477 -78.549,-26.321 -80.091,-30.284L-68.909,-34.637C-67.635,-31.364 -66.045,-28.188 -64.185,-25.198L-74.373,-18.858ZM26.223,-0.149L18.982,-9.718C21.787,-11.841 24.413,-14.238 26.787,-16.842L35.656,-8.758C32.787,-5.611 29.614,-2.715 26.223,-0.149M-57.213,-0.087C-60.608,-2.648 -63.785,-5.54 -66.657,-8.681L-57.801,-16.779C-55.423,-14.178 -52.794,-11.785 -49.985,-9.665L-57.213,-0.087ZM3.457,11.216L0.172,-0.325C3.55,-1.286 6.859,-2.571 10.01,-4.145L15.372,6.591C11.557,8.496 7.548,10.052 3.457,11.216M-34.426,11.247C-38.523,10.087 -42.534,8.536 -46.35,6.639L-41.004,-4.105C-37.853,-2.537 -34.541,-1.257 -31.158,-0.3L-34.426,11.247ZM-15.537,13.856C-17.649,13.856 -19.777,13.76 -21.862,13.571L-20.777,1.619C-17.302,1.936 -13.708,1.935 -10.205,1.611L-9.103,13.56C-11.23,13.756 -13.396,13.856 -15.537,13.856" style="fill:white;fill-rule:nonzero;"/>
                        </g>
                    </g>
                </g>
            </g>
        </g>
        <g transform="matrix(4.73058,0,0,4.73058,314.093,-591.66)">
            <path d="M42.71,428.84C41.42,429.54 39.88,429.97 38.24,429.97C32.88,429.97 28.81,425.88 28.81,420.52C28.81,415.16 32.88,411.07 38.24,411.07C39.88,411.07 41.42,411.5 42.71,412.2L42.71,415.75C41.61,414.78 40.02,414.13 38.24,414.13C34.66,414.13 31.96,416.96 31.96,420.51C31.96,424.07 34.65,426.89 38.24,426.89C40.02,426.89 41.63,426.24 42.71,425.3L42.71,428.84Z" style="fill-rule:nonzero;"/>
            <rect x="45.48" y="420.61" width="7.03" height="2.77" style="fill-rule:nonzero;"/>
            <path d="M65.24,415.35C64.27,414.6 62.74,413.98 61.25,413.98C59.5,413.98 58.53,414.84 58.53,416.05C58.53,416.83 59.04,417.48 60.04,418.1L62.84,419.85C65.18,421.25 66.07,422.73 66.07,424.73C66.07,427.48 64.13,429.98 60.09,429.98C58.23,429.98 56.62,429.47 55.51,428.93L55.51,425.48C56.48,426.26 58.18,427.07 59.95,427.07C61.81,427.07 62.78,426.1 62.78,424.89C62.78,424.08 62.27,423.38 61.08,422.65L58.23,420.9C55.97,419.58 55.24,418.1 55.24,416.16C55.24,413.71 56.86,411.07 61.3,411.07C62.78,411.07 64.15,411.47 65.23,412.01L65.23,415.35L65.24,415.35Z" style="fill-rule:nonzero;"/>
            <path d="M74.88,416.16C78.76,416.16 81.77,419.15 81.77,423.05C81.77,426.93 78.75,429.97 74.88,429.97C70.97,429.97 67.99,426.93 67.99,423.05C67.99,419.15 70.98,416.16 74.88,416.16ZM74.88,427.06C77.12,427.06 78.76,425.26 78.76,423.05C78.76,420.84 77.12,419.04 74.88,419.04C72.67,419.04 70.97,420.84 70.97,423.05C70.98,425.26 72.67,427.06 74.88,427.06Z" style="fill-rule:nonzero;"/>
            <path d="M92.79,427.82C92.09,429.09 90.88,429.97 89.05,429.97C86.14,429.97 84.26,427.79 84.26,424.85L84.26,416.42L87.22,416.42L87.22,424.04C87.22,425.84 88.27,427.06 89.99,427.06C91.66,427.06 92.71,425.93 92.79,424.23L92.79,416.42L95.73,416.42L95.73,429.67L92.79,429.67L92.79,427.82Z" style="fill-rule:nonzero;"/>
            <path d="M102.13,418.31C102.83,417.02 104.07,416.16 105.85,416.16C108.79,416.16 110.67,418.31 110.67,421.28L110.67,429.68L107.71,429.68L107.71,422.03C107.71,420.25 106.66,419.04 104.91,419.04C103.24,419.04 102.19,420.17 102.14,421.87L102.14,429.68L99.18,429.68L99.18,416.43L102.14,416.43L102.14,418.31L102.13,418.31Z" style="fill-rule:nonzero;"/>
            <path d="M124.1,427.52C123.13,429.03 121.51,429.97 119.55,429.97C115.78,429.97 113.11,426.93 113.11,423.05C113.11,419.14 115.78,416.16 119.57,416.16C121.54,416.16 123.12,417.08 124.09,418.58L124.09,411.09L127.03,411.09L127.03,429.67L124.09,429.67L124.09,427.52L124.1,427.52ZM120.14,419.07C117.88,419.07 116.18,420.85 116.18,423.06C116.18,425.24 117.88,427.07 120.14,427.07C122.4,427.07 124.1,425.24 124.1,423.06C124.1,420.84 122.41,419.07 120.14,419.07Z" style="fill-rule:nonzero;"/>
            <path d="M42.71,451.52C41.42,452.22 39.88,452.65 38.24,452.65C32.88,452.65 28.81,448.56 28.81,443.2C28.81,437.84 32.88,433.75 38.24,433.75C39.88,433.75 41.42,434.18 42.71,434.88L42.71,438.43C41.61,437.46 40.02,436.81 38.24,436.81C34.66,436.81 31.96,439.64 31.96,443.19C31.96,446.75 34.65,449.57 38.24,449.57C40.02,449.57 41.63,448.92 42.71,447.98L42.71,451.52Z" style="fill-rule:nonzero;"/>
            <path d="M48.6,440.72C49.22,439.62 50.3,438.84 51.86,438.84C52.21,438.84 52.64,438.87 52.96,438.92L52.96,442.07C52.48,441.86 51.86,441.72 51.18,441.72C49.56,441.72 48.65,442.85 48.59,444.55L48.59,452.36L45.63,452.36L45.63,439.1L48.59,439.1L48.59,440.72L48.6,440.72Z" style="fill-rule:nonzero;"/>
            <path d="M57.25,446.72C57.55,448.63 59.14,449.95 61.29,449.95C63.04,449.95 64.76,449.3 65.92,448.49L65.92,451.43C64.79,452.08 63.07,452.64 61.07,452.64C57.16,452.64 54.26,449.79 54.26,445.72C54.26,441.81 57.09,438.83 60.91,438.83C64.71,438.83 67.21,441.71 67.21,445.21C67.21,445.72 67.13,446.34 67.02,446.72L57.25,446.72ZM57.22,444.43L64.36,444.43C64.31,442.57 62.82,441.31 60.89,441.31C58.89,441.31 57.41,442.71 57.22,444.43Z" style="fill-rule:nonzero;"/>
            <path d="M70.12,439.67C71.09,439.21 72.49,438.84 73.92,438.84C77.21,438.84 79.33,440.43 79.33,444.17L79.33,452.36L76.37,452.36L76.37,451.15C75.7,452.04 74.54,452.66 73.14,452.66C70.23,452.66 68.64,450.61 68.64,448.3C68.64,445.88 70.5,443.96 73.19,443.96C74.48,443.96 75.69,444.53 76.37,445.23L76.37,444.13C76.37,442.25 75.08,441.49 73.6,441.49C72.39,441.49 71.15,441.89 70.13,442.54L70.13,439.67L70.12,439.67ZM73.94,450.41C75.26,450.41 76.34,449.47 76.34,448.28C76.34,447.09 75.26,446.12 73.94,446.12C72.62,446.12 71.57,447.09 71.57,448.28C71.57,449.47 72.65,450.41 73.94,450.41Z" style="fill-rule:nonzero;"/>
            <path d="M83.63,452.34L83.63,441.63L81.4,441.63L81.4,439.1L83.8,439.1L83.8,436L86.6,435.35L86.6,439.09L89,439.09L89,441.62L86.6,441.62L86.6,452.34L83.63,452.34Z" style="fill-rule:nonzero;"/>
            <path d="M92.54,433.23C93.59,433.23 94.34,434.06 94.34,435.06C94.34,436.08 93.59,436.89 92.54,436.89C91.49,436.89 90.71,436.08 90.71,435.06C90.71,434.06 91.49,433.23 92.54,433.23ZM94.03,452.35L91.07,452.35L91.07,439.1L94.03,439.1L94.03,452.35Z" style="fill-rule:nonzero;"/>
            <path d="M103.5,438.83C107.38,438.83 110.39,441.82 110.39,445.72C110.39,449.6 107.37,452.64 103.5,452.64C99.59,452.64 96.61,449.6 96.61,445.72C96.61,441.82 99.6,438.83 103.5,438.83ZM103.5,449.74C105.74,449.74 107.38,447.94 107.38,445.73C107.38,443.52 105.74,441.72 103.5,441.72C101.29,441.72 99.59,443.52 99.59,445.73C99.6,447.93 101.3,449.74 103.5,449.74Z" style="fill-rule:nonzero;"/>
            <path d="M115.92,440.99C116.62,439.7 117.86,438.84 119.64,438.84C122.58,438.84 124.46,440.99 124.46,443.96L124.46,452.36L121.5,452.36L121.5,444.71C121.5,442.93 120.45,441.72 118.7,441.72C117.03,441.72 115.98,442.85 115.93,444.55L115.93,452.36L112.97,452.36L112.97,439.1L115.93,439.1L115.93,440.99L115.92,440.99Z" style="fill-rule:nonzero;"/>
            <path d="M134.87,442.36C134.01,441.79 132.9,441.42 131.88,441.42C130.75,441.42 130.16,441.99 130.16,442.71C130.16,443.28 130.51,443.57 131.16,443.98L133.29,445.25C134.93,446.25 135.5,447.46 135.5,448.75C135.5,451.04 133.75,452.65 130.76,452.65C129.49,452.65 128.2,452.3 127.31,451.9L127.31,448.86C127.98,449.45 129.38,450.1 130.6,450.1C131.78,450.1 132.43,449.51 132.43,448.73C132.43,448.19 132.13,447.76 131.3,447.28L129.04,445.93C127.67,445.12 127.13,443.94 127.13,442.64C127.13,440.43 128.8,438.84 131.82,438.84C132.92,438.84 134.06,439.08 134.89,439.38L134.89,442.36L134.87,442.36Z" style="fill-rule:nonzero;"/>
            <rect x="28.79" y="456.78" width="0.98" height="7.71" style="fill-rule:nonzero;"/>
            <path d="M32.49,459.85C32.8,459.26 33.34,458.86 34.15,458.86C35.42,458.86 36.22,459.79 36.22,461.05L36.22,464.5L35.28,464.5L35.28,461.28C35.28,460.41 34.75,459.79 33.89,459.79C33.04,459.79 32.53,460.36 32.5,461.21L32.5,464.5L31.56,464.5L31.56,458.98L32.5,458.98L32.5,459.85L32.49,459.85Z" style="fill-rule:nonzero;"/>
            <path d="M38.17,464.49L38.17,459.78L37.14,459.78L37.14,458.96L38.22,458.96L38.22,457.61L39.12,457.37L39.12,458.96L40.21,458.96L40.21,459.78L39.12,459.78L39.12,464.49L38.17,464.49Z" style="fill-rule:nonzero;"/>
            <path d="M41.73,462.08C41.84,463.06 42.61,463.75 43.66,463.75C44.42,463.75 45.18,463.42 45.64,463.06L45.64,464.03C45.16,464.34 44.44,464.61 43.59,464.61C41.99,464.61 40.78,463.41 40.78,461.73C40.78,460.12 41.96,458.86 43.53,458.86C45.12,458.86 46.19,460.06 46.19,461.57C46.19,461.74 46.17,461.97 46.14,462.08L41.73,462.08ZM41.73,461.33L45.28,461.33C45.27,460.33 44.5,459.67 43.53,459.67C42.55,459.68 41.8,460.4 41.73,461.33Z" style="fill-rule:nonzero;"/>
            <path d="M52.67,458.96L52.67,464.07C52.67,465.86 51.51,466.93 49.8,466.93C48.98,466.93 48.26,466.68 47.86,466.45L47.86,465.43C48.3,465.75 49.06,466.03 49.81,466.03C50.91,466.03 51.73,465.28 51.73,464.18L51.73,463.28C51.33,463.97 50.6,464.44 49.66,464.44C48.12,464.44 46.97,463.24 46.97,461.65C46.97,460.07 48.12,458.85 49.66,458.85C50.6,458.85 51.34,459.33 51.73,460.05L51.73,458.96L52.67,458.96ZM49.83,459.8C48.78,459.8 47.98,460.62 47.98,461.66C47.98,462.71 48.77,463.53 49.83,463.53C50.91,463.53 51.69,462.71 51.69,461.66C51.69,460.62 50.9,459.8 49.83,459.8Z" style="fill-rule:nonzero;"/>
            <path d="M55.2,459.72C55.46,459.21 55.93,458.86 56.63,458.86C56.78,458.86 56.95,458.88 57.09,458.92L57.09,459.93C56.91,459.85 56.67,459.79 56.42,459.79C55.63,459.79 55.23,460.36 55.2,461.21L55.2,464.5L54.26,464.5L54.26,458.98L55.2,458.98L55.2,459.72Z" style="fill-rule:nonzero;"/>
            <path d="M58.22,459.24C58.63,459.04 59.2,458.85 59.81,458.85C61.06,458.85 61.94,459.48 61.94,460.97L61.94,464.48L61,464.48L61,463.88C60.71,464.31 60.18,464.59 59.55,464.59C58.34,464.59 57.62,463.75 57.62,462.75C57.62,461.73 58.42,460.94 59.56,460.94C60.16,460.94 60.73,461.25 61,461.59L61,460.95C61,460.07 60.38,459.7 59.72,459.7C59.18,459.7 58.67,459.88 58.22,460.15L58.22,459.24ZM59.77,463.88C60.44,463.88 60.98,463.39 60.98,462.77C60.98,462.17 60.41,461.68 59.77,461.68C59.1,461.68 58.56,462.17 58.56,462.77C58.56,463.39 59.11,463.88 59.77,463.88Z" style="fill-rule:nonzero;"/>
            <path d="M64.38,459.85C64.69,459.26 65.23,458.86 66.04,458.86C67.31,458.86 68.11,459.79 68.11,461.05L68.11,464.5L67.17,464.5L67.17,461.28C67.17,460.41 66.64,459.79 65.78,459.79C64.93,459.79 64.42,460.36 64.39,461.21L64.39,464.5L63.45,464.5L63.45,458.98L64.39,458.98L64.39,459.85L64.38,459.85Z" style="fill-rule:nonzero;"/>
            <path d="M70.06,464.49L70.06,459.78L69.03,459.78L69.03,458.96L70.11,458.96L70.11,457.61L71.01,457.37L71.01,458.96L72.1,458.96L72.1,459.78L71.01,459.78L71.01,464.49L70.06,464.49Z" style="fill-rule:nonzero;"/>
            <path d="M79.53,458.19C79.11,457.86 78.5,457.59 77.85,457.59C77.01,457.59 76.5,458.02 76.5,458.67C76.5,459.07 76.73,459.38 77.21,459.69L78.55,460.53C79.5,461.13 79.85,461.71 79.85,462.51C79.85,463.61 79.04,464.61 77.41,464.61C76.63,464.61 75.96,464.37 75.52,464.15L75.52,463C75.93,463.34 76.59,463.69 77.39,463.69C78.32,463.69 78.82,463.16 78.82,462.56C78.82,462.15 78.55,461.78 77.98,461.43L76.65,460.59C75.77,460.05 75.45,459.47 75.45,458.7C75.45,457.71 76.12,456.68 77.87,456.68C78.54,456.68 79.12,456.86 79.52,457.1L79.52,458.19L79.53,458.19Z" style="fill-rule:nonzero;"/>
            <path d="M83.62,458.86C85.25,458.86 86.49,460.12 86.49,461.73C86.49,463.36 85.25,464.61 83.62,464.61C82.01,464.61 80.75,463.36 80.75,461.73C80.76,460.12 82.01,458.86 83.62,458.86ZM83.62,463.69C84.71,463.69 85.52,462.82 85.52,461.73C85.52,460.65 84.7,459.79 83.62,459.79C82.54,459.79 81.73,460.65 81.73,461.73C81.73,462.82 82.55,463.69 83.62,463.69Z" style="fill-rule:nonzero;"/>
            <path d="M88.65,459.85C88.96,459.26 89.5,458.86 90.31,458.86C91.58,458.86 92.38,459.79 92.38,461.05L92.38,464.5L91.44,464.5L91.44,461.28C91.44,460.41 90.91,459.79 90.05,459.79C89.2,459.79 88.69,460.36 88.66,461.21L88.66,464.5L87.72,464.5L87.72,458.98L88.66,458.98L88.66,459.85L88.65,459.85Z" style="fill-rule:nonzero;"/>
            <path d="M97.56,463.63C97.28,464.22 96.72,464.6 95.92,464.6C94.66,464.6 93.86,463.68 93.86,462.41L93.86,458.96L94.8,458.96L94.8,462.19C94.8,463.06 95.31,463.68 96.18,463.68C97.02,463.68 97.53,463.11 97.56,462.27L97.56,458.96L98.51,458.96L98.51,464.48L97.56,464.48L97.56,463.63Z" style="fill-rule:nonzero;"/>
            <path d="M101.04,459.73C101.33,459.2 101.86,458.86 102.57,458.86C103.39,458.86 104.05,459.27 104.35,460.01C104.6,459.31 105.19,458.86 106.04,458.86C107.14,458.86 107.98,459.65 107.98,460.92L107.98,464.49L107.04,464.49L107.04,461.15C107.04,460.27 106.52,459.79 105.78,459.79C105.04,459.79 104.51,460.28 104.51,461.15L104.51,464.49L103.57,464.49L103.57,461.15C103.57,460.27 103.05,459.79 102.32,459.79C101.58,459.79 101.07,460.24 101.04,461.07L101.04,464.49L100.1,464.49L100.1,458.97L101.04,458.97L101.04,459.73Z" style="fill-rule:nonzero;"/>
            <path d="M113.16,463.63C112.88,464.22 112.32,464.6 111.52,464.6C110.26,464.6 109.46,463.68 109.46,462.41L109.46,458.96L110.4,458.96L110.4,462.19C110.4,463.06 110.91,463.68 111.78,463.68C112.62,463.68 113.13,463.11 113.16,462.27L113.16,458.96L114.11,458.96L114.11,464.48L113.16,464.48L113.16,463.63Z" style="fill-rule:nonzero;"/>
            <path d="M116.64,459.85C116.95,459.26 117.49,458.86 118.3,458.86C119.57,458.86 120.37,459.79 120.37,461.05L120.37,464.5L119.43,464.5L119.43,461.28C119.43,460.41 118.9,459.79 118.04,459.79C117.19,459.79 116.68,460.36 116.65,461.21L116.65,464.5L115.71,464.5L115.71,458.98L116.65,458.98L116.65,459.85L116.64,459.85Z" style="fill-rule:nonzero;"/>
            <path d="M126.34,463.39C125.94,464.13 125.19,464.6 124.27,464.6C122.67,464.6 121.53,463.35 121.53,461.72C121.53,460.11 122.68,458.85 124.27,458.85C125.2,458.85 125.95,459.34 126.34,460.07L126.34,456.66L127.29,456.66L127.29,464.48L126.34,464.48L126.34,463.39ZM124.43,459.79C123.34,459.79 122.5,460.66 122.5,461.73C122.5,462.82 123.34,463.68 124.43,463.68C125.53,463.68 126.35,462.82 126.35,461.73C126.34,460.66 125.53,459.79 124.43,459.79Z" style="fill-rule:nonzero;"/>
            <path d="M129.32,456.61C129.69,456.61 129.95,456.88 129.95,457.23C129.95,457.58 129.69,457.84 129.32,457.84C128.98,457.84 128.71,457.58 128.71,457.23C128.71,456.88 128.98,456.61 129.32,456.61ZM129.8,464.49L128.86,464.49L128.86,458.97L129.8,458.97L129.8,464.49Z" style="fill-rule:nonzero;"/>
        </g>
    </g>
</svg>
