<?xml version="1.0" encoding="UTF-8" standalone="no"?>
<!DOCTYPE svg PUBLIC "-//W3C//DTD SVG 1.1//EN" "http://www.w3.org/Graphics/SVG/1.1/DTD/svg11.dtd">
<svg width="100%" height="100%" viewBox="0 0 975 180" version="1.1" xmlns="http://www.w3.org/2000/svg" xmlns:xlink="http://www.w3.org/1999/xlink" xml:space="preserve" xmlns:serif="http://www.serif.com/" style="fill-rule:evenodd;clip-rule:evenodd;stroke-linejoin:round;stroke-miterlimit:2;">
    <g transform="matrix(0.508194,0,0,0.508194,-19.4207,-37.9799)">
        <g transform="matrix(4.19294,0,0,4.19294,226.689,15.4137)">
            <g>
                <path d="M74.83,70.69C72.67,71.86 70.11,72.58 67.37,72.58C58.43,72.58 51.64,65.75 51.64,56.81C51.64,47.87 58.42,41.04 67.37,41.04C70.11,41.04 72.67,41.76 74.83,42.93L74.83,48.86C72.99,47.24 70.34,46.16 67.37,46.16C61.39,46.16 56.9,50.88 56.9,56.81C56.9,62.74 61.39,67.46 67.37,67.46C70.34,67.46 73.03,66.38 74.83,64.81L74.83,70.69Z" style="fill-rule:nonzero;"/>
                <rect x="79.47" y="56.94" width="11.73" height="4.63" style="fill-rule:nonzero;"/>
                <path d="M112.45,48.18C110.83,46.92 108.27,45.89 105.8,45.89C102.88,45.89 101.26,47.33 101.26,49.35C101.26,50.65 102.11,51.73 103.78,52.76L108.45,55.68C112.36,58.02 113.84,60.49 113.84,63.81C113.84,68.39 110.6,72.57 103.87,72.57C100.77,72.57 98.07,71.72 96.23,70.82L96.23,65.07C97.85,66.37 100.68,67.72 103.64,67.72C106.74,67.72 108.36,66.1 108.36,64.08C108.36,62.73 107.51,61.56 105.53,60.35L100.77,57.43C97,55.23 95.78,52.76 95.78,49.52C95.78,45.43 98.48,41.03 105.89,41.03C108.36,41.03 110.65,41.7 112.45,42.6L112.45,48.18Z" style="fill-rule:nonzero;"/>
                <path d="M128.53,49.53C135,49.53 140.03,54.52 140.03,61.03C140.03,67.5 135,72.58 128.53,72.58C122.01,72.58 117.03,67.5 117.03,61.03C117.03,54.52 122.02,49.53 128.53,49.53ZM128.53,67.73C132.26,67.73 135,64.72 135,61.04C135,57.36 132.26,54.35 128.53,54.35C124.85,54.35 122.01,57.36 122.01,61.04C122.02,64.72 124.85,67.73 128.53,67.73Z" style="fill-rule:nonzero;"/>
                <path d="M158.42,68.98C157.25,71.09 155.23,72.57 152.17,72.57C147.32,72.57 144.17,68.93 144.17,64.03L144.17,49.98L149.11,49.98L149.11,62.7C149.11,65.71 150.86,67.73 153.74,67.73C156.53,67.73 158.28,65.84 158.41,63.01L158.41,49.98L163.31,49.98L163.31,72.09L158.41,72.09L158.41,68.98L158.42,68.98Z" style="fill-rule:nonzero;"/>
                <path d="M174.01,53.12C175.18,50.96 177.25,49.53 180.21,49.53C185.11,49.53 188.25,53.12 188.25,58.07L188.25,72.09L183.31,72.09L183.31,59.32C183.31,56.35 181.56,54.33 178.64,54.33C175.85,54.33 174.1,56.22 174.01,59.05L174.01,72.08L169.07,72.08L169.07,49.98L174.01,49.98L174.01,53.12Z" style="fill-rule:nonzero;"/>
                <path d="M210.67,68.49C209.05,71.01 206.36,72.58 203.08,72.58C196.79,72.58 192.34,67.5 192.34,61.03C192.34,54.52 196.79,49.53 203.12,49.53C206.4,49.53 209.05,51.06 210.67,53.57L210.67,41.08L215.57,41.08L215.57,72.08L210.67,72.08L210.67,68.49ZM204.07,54.38C200.29,54.38 197.46,57.35 197.46,61.03C197.46,64.67 200.29,67.72 204.07,67.72C207.84,67.72 210.67,64.66 210.67,61.03C210.67,57.35 207.84,54.38 204.07,54.38Z" style="fill-rule:nonzero;"/>
                <path d="M253.36,70.69C251.2,71.86 248.64,72.58 245.9,72.58C236.96,72.58 230.18,65.75 230.18,56.81C230.18,47.87 236.96,41.04 245.9,41.04C248.64,41.04 251.2,41.76 253.36,42.93L253.36,48.86C251.52,47.24 248.87,46.16 245.9,46.16C239.92,46.16 235.43,50.88 235.43,56.81C235.43,62.74 239.92,67.46 245.9,67.46C248.87,67.46 251.56,66.38 253.36,64.81L253.36,70.69Z" style="fill-rule:nonzero;"/>
                <path d="M263.21,52.67C264.24,50.83 266.04,49.53 268.65,49.53C269.23,49.53 269.95,49.58 270.49,49.66L270.49,54.92C269.68,54.56 268.65,54.34 267.52,54.34C264.82,54.34 263.3,56.23 263.21,59.06L263.21,72.09L258.27,72.09L258.27,49.98L263.21,49.98L263.21,52.67Z" style="fill-rule:nonzero;"/>
                <path d="M277.63,62.69C278.12,65.88 280.77,68.08 284.37,68.08C287.29,68.08 290.17,67 292.1,65.65L292.1,70.55C290.21,71.63 287.34,72.57 284.01,72.57C277.49,72.57 272.64,67.81 272.64,61.02C272.64,54.51 277.36,49.52 283.74,49.52C290.07,49.52 294.25,54.33 294.25,60.17C294.25,61.02 294.11,62.06 293.94,62.69L277.63,62.69ZM277.59,58.88L289.5,58.88C289.41,55.78 286.94,53.67 283.7,53.67C280.37,53.66 277.9,56 277.59,58.88Z" style="fill-rule:nonzero;"/>
                <path d="M299.11,50.92C300.73,50.16 303.06,49.53 305.44,49.53C310.92,49.53 314.47,52.18 314.47,58.43L314.47,72.09L309.53,72.09L309.53,70.07C308.41,71.55 306.48,72.59 304.14,72.59C299.29,72.59 296.64,69.18 296.64,65.31C296.64,61.27 299.74,58.08 304.23,58.08C306.39,58.08 308.41,59.02 309.53,60.19L309.53,58.35C309.53,55.21 307.37,53.95 304.9,53.95C302.88,53.95 300.81,54.62 299.11,55.7L299.11,50.92ZM305.49,68.85C307.69,68.85 309.49,67.28 309.49,65.3C309.49,63.32 307.69,61.71 305.49,61.71C303.29,61.71 301.54,63.33 301.54,65.3C301.54,67.28 303.33,68.85 305.49,68.85Z" style="fill-rule:nonzero;"/>
                <path d="M321.67,72.08L321.67,54.2L317.94,54.2L317.94,49.98L321.94,49.98L321.94,44.81L326.61,43.73L326.61,49.98L330.61,49.98L330.61,54.2L326.61,54.2L326.61,72.08L321.67,72.08Z" style="fill-rule:nonzero;"/>
                <path d="M336.54,40.18C338.29,40.18 339.55,41.57 339.55,43.24C339.55,44.95 338.29,46.29 336.54,46.29C334.79,46.29 333.49,44.94 333.49,43.24C333.48,41.58 334.79,40.18 336.54,40.18ZM339.01,72.08L334.07,72.08L334.07,49.98L339.01,49.98L339.01,72.08Z" style="fill-rule:nonzero;"/>
                <path d="M354.83,49.53C361.3,49.53 366.33,54.52 366.33,61.03C366.33,67.5 361.3,72.58 354.83,72.58C348.32,72.58 343.33,67.5 343.33,61.03C343.33,54.52 348.31,49.53 354.83,49.53ZM354.83,67.73C358.56,67.73 361.3,64.72 361.3,61.04C361.3,57.36 358.56,54.35 354.83,54.35C351.15,54.35 348.32,57.36 348.32,61.04C348.31,64.72 351.14,67.73 354.83,67.73Z" style="fill-rule:nonzero;"/>
                <path d="M375.54,53.12C376.71,50.96 378.78,49.53 381.74,49.53C386.64,49.53 389.78,53.12 389.78,58.07L389.78,72.09L384.84,72.09L384.84,59.32C384.84,56.35 383.09,54.33 380.17,54.33C377.38,54.33 375.63,56.22 375.54,59.05L375.54,72.08L370.6,72.08L370.6,49.98L375.54,49.98L375.54,53.12Z" style="fill-rule:nonzero;"/>
                <path d="M407.18,55.42C405.74,54.48 403.9,53.85 402.19,53.85C400.3,53.85 399.31,54.79 399.31,56.01C399.31,56.95 399.9,57.45 400.97,58.12L404.52,60.23C407.26,61.89 408.2,63.91 408.2,66.07C408.2,69.89 405.28,72.58 400.29,72.58C398.18,72.58 396.02,72 394.54,71.32L394.54,66.24C395.66,67.23 398,68.31 400.02,68.31C402,68.31 403.08,67.32 403.08,66.02C403.08,65.12 402.59,64.4 401.19,63.59L397.42,61.34C395.13,59.99 394.23,58.02 394.23,55.86C394.23,52.18 397.02,49.52 402.05,49.52C403.89,49.52 405.78,49.92 407.17,50.42L407.17,55.42L407.18,55.42Z" style="fill-rule:nonzero;"/>
            </g>
        </g>
        <g transform="matrix(0.730022,0,0,0.730022,19.2347,69.3272)">
            <g transform="matrix(1.03774,0,0,1.03774,-129.11,-1148.82)">
                <circle cx="365.324" cy="1347.95" r="191.401" style="fill:white;"/>
            </g>
            <g transform="matrix(1.33831,0,0,1.33831,-622.839,-614.944)">
                <path d="M652.644,529.313C696.491,529.52 738.76,556.233 757.753,595.624C774.062,629.448 772.713,671.234 754.137,703.983C730.303,746 679.063,770.685 630.126,761.297C582.575,752.174 542.506,711.052 536.167,661.244C530.004,612.822 557.195,561.573 602.821,540.256C618.005,533.161 634.703,529.449 651.51,529.315C651.888,529.313 652.266,529.313 652.644,529.313ZM651.926,541.4C612.417,541.586 574.28,565.866 557.39,601.448C543.047,631.665 544.329,668.792 560.908,698.02C582.272,735.683 628.225,757.848 672.128,749.427C714.766,741.248 750.373,704.63 756.289,660.374C762.14,616.615 737.697,570.41 696.594,551.206C682.989,544.849 668.038,541.522 652.945,541.401C652.605,541.4 652.265,541.399 651.926,541.4Z"/>
            </g>
            <g transform="matrix(1.94107,0,0,1.94107,-16.0033,-650.834)">
                <g transform="matrix(0.344735,0,0,0.344735,-87.864,203.034)">
                    <path d="M653.06,523.272C705.752,523.776 755.717,561.263 770.465,611.946C782.382,652.898 771.096,699.684 741.853,730.723C719.107,754.866 686.576,769.113 653.06,769.433C653.06,769.433 640.633,767.573 640.192,757.9C639.852,750.459 646.596,745.522 656.093,745.19C697.416,743.486 735.752,713.533 747.254,674.005C756.888,640.899 747.63,603.069 723.85,578.128C705.442,558.821 679.026,547.527 652.228,547.442C652.228,547.442 637.367,542.609 640.72,531.78C642.239,526.874 645.562,523.535 652.304,523.269C652.556,523.27 652.808,523.271 653.06,523.272Z"/>
                </g>
                <g transform="matrix(0.344735,0,0,0.344735,-87.864,279.563)">
                    <path d="M653.253,523.31C660.15,524.171 660.949,526.424 662.538,528.987C667.503,536.993 660.915,547.081 648.437,547.515C607.322,549.211 568.862,578.888 557.277,618.7C547.644,651.806 556.902,689.635 580.682,714.578C599.084,733.88 625.312,745.178 652.304,745.263C652.304,745.263 667.165,750.096 663.811,760.925C661.609,768.036 653.24,769.749 644.376,769.186C595.109,766.06 549.481,730.345 534.722,682.937C516.402,624.088 549.074,553.058 609.959,530.747C623.467,525.797 637.843,523.315 652.228,523.269C652.569,523.283 652.911,523.296 653.253,523.31Z"/>
                </g>
            </g>
            <g transform="matrix(1.18856e-16,1.94107,-1.94107,1.18856e-16,1150.83,-16.0033)">
                <g transform="matrix(0.344735,0,0,0.344735,-87.864,203.034)">
                    <path d="M653.06,523.272C705.752,523.776 755.717,561.263 770.465,611.946C782.382,652.898 771.096,699.684 741.853,730.723C719.107,754.866 686.576,769.113 653.06,769.433C653.06,769.433 640.633,767.573 640.192,757.9C639.852,750.459 646.596,745.522 656.093,745.19C697.416,743.486 735.752,713.533 747.254,674.005C756.888,640.899 747.63,603.069 723.85,578.128C705.442,558.821 679.026,547.527 652.228,547.442C652.228,547.442 637.367,542.609 640.72,531.78C642.239,526.874 645.562,523.535 652.304,523.269C652.556,523.27 652.808,523.271 653.06,523.272Z"/>
                </g>
                <g transform="matrix(0.344735,0,0,0.344735,-87.864,279.563)">
                    <path d="M653.253,523.31C660.15,524.171 660.949,526.424 662.538,528.987C667.503,536.993 660.915,547.081 648.437,547.515C607.322,549.211 568.862,578.888 557.277,618.7C547.644,651.806 556.902,689.635 580.682,714.578C599.084,733.88 625.312,745.178 652.304,745.263C652.304,745.263 667.165,750.096 663.811,760.925C661.609,768.036 653.24,769.749 644.376,769.186C595.109,766.06 549.481,730.345 534.722,682.937C516.402,624.088 549.074,553.058 609.959,530.747C623.467,525.797 637.843,523.315 652.228,523.269C652.569,523.283 652.911,523.296 653.253,523.31Z"/>
                </g>
            </g>
            <g transform="matrix(1.94107,0,0,1.94107,110.226,-964.985)">
                <g transform="matrix(1.272,0,0,1.272,-610.237,-19.5993)">
                    <circle cx="536.355" cy="507.496" r="24.055" style="fill:white;fill-opacity:0.98;"/>
                </g>
                <g transform="matrix(1.272,0,0,1.272,-610.221,-19.5995)">
                    <path d="M536.531,480.296C548.984,480.414 560.696,489.985 563.068,502.352C566.028,517.781 553.422,534.587 536.531,534.695C523.589,534.778 511.345,524.442 509.443,511.464C507.237,496.405 519.494,480.662 535.83,480.301C536.063,480.297 536.297,480.296 536.531,480.296ZM536.22,486.586C526.707,486.675 517.791,493.901 515.87,503.281C513.434,515.174 523.092,528.322 536.22,528.406C546.163,528.47 555.579,520.55 557.044,510.552C558.739,498.984 549.334,486.867 536.761,486.589C536.581,486.586 536.4,486.585 536.22,486.586Z"/>
                </g>
            </g>
            <g transform="matrix(2.70937,0,0,2.70937,-1536.22,-700.673)">
                <g transform="matrix(1,0,0,1,155.57,-145.139)">
                    <path d="M575.823,496.024C575.823,535.88 543.535,568.191 503.704,568.191C463.876,568.191 431.587,535.88 431.587,496.021C431.587,456.164 463.876,423.855 503.704,423.855C543.535,423.855 575.823,456.164 575.823,496.024ZM558.055,496.022C558.055,466.006 533.703,441.637 503.707,441.637C473.712,441.637 449.36,466.006 449.36,496.022C449.36,526.039 473.712,550.408 503.707,550.408C533.703,550.408 558.055,526.039 558.055,496.022Z" style="fill-rule:nonzero;"/>
                </g>
                <g transform="matrix(-1,1.22465e-16,-1.22465e-16,-1,643.739,295.628)">
                    <path d="M0,-110.51C-3.378,-111.46 -6.872,-112.101 -10.384,-112.414L-9.318,-124.366C-5.07,-123.988 -0.842,-123.212 3.249,-122.062L0,-110.51ZM-31.331,-110.437L-34.634,-121.973C-30.549,-123.144 -26.324,-123.939 -22.077,-124.337L-20.957,-112.389C-24.467,-112.06 -27.957,-111.404 -31.331,-110.437M18.841,-101.176C16.024,-103.294 13,-105.16 9.851,-106.72L15.18,-117.472C18.989,-115.584 22.647,-113.328 26.054,-110.766L18.841,-101.176ZM-50.125,-101.016L-57.383,-110.573C-53.99,-113.149 -50.343,-115.422 -46.542,-117.329L-41.162,-106.602C-44.304,-105.027 -47.319,-103.147 -50.125,-101.016M33.065,-85.666C31.202,-88.649 29.049,-91.478 26.667,-94.075L35.511,-102.186C38.389,-99.048 40.991,-95.628 43.243,-92.022L33.065,-85.666ZM-64.277,-85.44L-74.485,-91.747C-72.251,-95.364 -69.666,-98.796 -66.8,-101.949L-57.919,-93.879C-60.29,-91.27 -62.429,-88.431 -64.277,-85.44M40.716,-66.093C40.063,-69.551 39.083,-72.963 37.803,-76.234L48.979,-80.606C50.53,-76.641 51.717,-72.508 52.507,-68.32L40.716,-66.093ZM-71.838,-65.828L-83.64,-68C-82.869,-72.192 -81.701,-76.331 -80.168,-80.302L-68.973,-75.983C-70.237,-72.706 -71.201,-69.289 -71.838,-65.828M52.549,-42.68L40.75,-44.871C41.39,-48.315 41.714,-51.855 41.714,-55.393L41.714,-55.593L53.714,-55.593L53.714,-55.393C53.714,-51.122 53.323,-46.845 52.549,-42.68M-83.601,-42.573C-84.38,-46.738 -84.779,-51.014 -84.786,-55.285L-72.786,-55.304C-72.78,-51.766 -72.451,-48.226 -71.806,-44.782L-83.601,-42.573ZM43.356,-18.947L33.159,-25.271C35.015,-28.266 36.6,-31.444 37.869,-34.718L49.058,-30.385C47.522,-26.42 45.604,-22.571 43.356,-18.947M-74.373,-18.858C-76.625,-22.477 -78.549,-26.321 -80.091,-30.284L-68.909,-34.637C-67.635,-31.364 -66.045,-28.188 -64.185,-25.198L-74.373,-18.858ZM26.223,-0.149L18.982,-9.718C21.787,-11.841 24.413,-14.238 26.787,-16.842L35.656,-8.758C32.787,-5.611 29.614,-2.715 26.223,-0.149M-57.213,-0.087C-60.608,-2.648 -63.785,-5.54 -66.657,-8.681L-57.801,-16.779C-55.423,-14.178 -52.794,-11.785 -49.985,-9.665L-57.213,-0.087ZM3.457,11.216L0.172,-0.325C3.55,-1.286 6.859,-2.571 10.01,-4.145L15.372,6.591C11.557,8.496 7.548,10.052 3.457,11.216M-34.426,11.247C-38.523,10.087 -42.534,8.536 -46.35,6.639L-41.004,-4.105C-37.853,-2.537 -34.541,-1.257 -31.158,-0.3L-34.426,11.247ZM-15.537,13.856C-17.649,13.856 -19.777,13.76 -21.862,13.571L-20.777,1.619C-17.302,1.936 -13.708,1.935 -10.205,1.611L-9.103,13.56C-11.23,13.756 -13.396,13.856 -15.537,13.856" style="fill:white;fill-rule:nonzero;"/>
                </g>
            </g>
        </g>
    </g>
</svg>
